<?xml version="1.0" encoding="utf-8"?>
<svg version="1.1" id="Layer_1" xmlns="http://www.w3.org/2000/svg" xmlns:xlink="http://www.w3.org/1999/xlink" x="0px" y="0px"
	 viewBox="0 0 555 543" style="enable-background:new 0 0 555 543;" xml:space="preserve">
<style type="text/css">
	.st0{fill:#898989;}
</style>
<g>
	<path class="st0" d="M521,66.8c-1.6-1.6-3.8-2.5-6-2.5c-5.5,0-11,0.2-16.4,0.6l0.2-14.1c0-3-1.1-5.9-3.2-8s-5-3.5-8-3.5
		c-3.4,0-6.8,0.1-10.2,0.1h0l0.1-11.4c0-3-1.1-5.8-3.2-7.9c-2.1-2.1-5-3.3-8-3.3c-96.2,0-189.8,84.7-217.2,111.7
		C181.3,65.7,90.6,25,86.7,23.2c-3.5-1.6-7.6-1.2-10.8,0.9c-3.2,2.1-5.1,5.8-5,9.6l0.4,14.8c0.2,0.1,0.4,0.2,0.6,0.3
		c-3.8-1.6-6.1-2.6-6.7-2.9c-3.5-1.4-7.5-1-10.6,1.1c-3.1,2.2-4.9,5.7-4.8,9.5l0.5,16.6c-5.2-1.9-8.1-3-8.3-3.1
		c-2.6-0.9-5.5-0.5-7.8,1.2c-2.2,1.6-3.5,4.3-3.4,7l11.2,345.5c0.1,4,3.1,7.3,7,8c92.1,15.7,202.1,84.5,203.2,85.2
		c1.3,0.8,2.9,1.3,4.5,1.3c1,0,2-0.2,2.9-0.5c100-37.1,250.5-74.9,252-75.3c3.7-0.9,6.3-4.2,6.4-8l5.6-361.6
		C523.5,70.6,522.6,68.4,521,66.8L521,66.8z M47.8,90.3c32.8,12.6,126.3,50.8,193.3,102.4c0.8,0.6,1.8,1.1,2.8,1.3
		c-3.6,1.1-6.2,4.8-6.1,8.7l10.8,292.6c-0.9-0.5-1.7-1-2.7-1.6l-16.5-297.6C203.8,165.4,70.9,106.7,48,96.8L47.8,90.3z M258.7,313
		l26.5,18.8L260,346.8L258.7,313z M260.2,354l25.9,7.4l-24.7,26.1L260.2,354z M265.5,497.7l-4-108.2l35-1.4L279.2,422l36.2-12.6
		l-6.4,36.2l31.7-22.5l5.2,35l24.2-30.2l16.4,30.4l14.2-34.9l25.9,22.8l2.9-36.2l32.9,13l-8.7-34l36.6,1.9L471,362.5l31.3-8
		l-1.1,73.3C472.5,435.1,353.9,466,265.5,497.7L265.5,497.7z M373.2,394c0-7.7,8.2-14,18.4-14s18.4,6.3,18.4,14s-8.2,14-18.4,14
		C381.4,408,373.2,401.7,373.2,394z M479.5,333l23.3-13.8l-0.5,30L479.5,333z M478.6,303.4l24.9-26.3l-0.5,33.3L478.6,303.4z
		 M503.5,275.3l-35.3,1.4l17.4-33.9l-36.2,12.6l6.4-36.2L440.5,230L416,380c-12.3-11.2-42.9,0-42.9,0l-31-157.9l-4-3.6l-2.9,36.2
		l-29.8-11.8c2.1-1,3.9-1.9,5.4-2.5c4.2-1.8,8.5-3.7-1.8-68.7c-0.3-1.7-1.3-3.2-2.9-4c-1.5-0.8-3.4-0.9-4.9-0.2
		c-0.8,0.4-20.7,9.2-36,18.2c-1.8,1.1-2.9,3.1-2.7,5.3l5.1,62.7c0.2,1.9,1.2,3.6,2.9,4.5c0.8,0.5,1.8,0.7,2.7,0.7
		c0.9,0,1.8-0.2,2.6-0.7c0.2-0.1,15.8-8.4,27.2-14l8,31.6l-36.6-1.9l19.4,28.5l-35.1,8.9l-4-109.7c-0.1-3.7-2.7-6.6-6.1-7.6
		c1.1-0.3,2.2-0.8,3.1-1.5c1.3-1.1,127.8-106.6,254.9-111.2L503.5,275.3z M278,244.3l-4.1-50.7c8.8-5,18.7-9.8,25.1-12.8
		c3.1,21.1,5.6,43.6,5,50.4C296.9,234.5,285.5,240.4,278,244.3L278,244.3z M326.1,122c-3.8,2.1-7.5,4.3-11.1,6.4
		C357.3,98.8,416.6,66,476.2,62.2l-0.1,5C418.7,75.6,364.4,100.5,326.1,122L326.1,122z M455,39.3c-48.9,11.2-95.7,32.1-133.2,56
		c36.7-26.5,84.8-54,133.2-57.8L455,39.3L455,39.3L455,39.3z M466.2,40.6c-0.2,0-0.4,0-0.5,0.1C465.9,40.6,466,40.6,466.2,40.6z
		 M249.1,151.9c-1,0.9-1.9,1.7-2.8,2.5C247.2,153.7,248.1,152.8,249.1,151.9z M320.2,97.7c-1.8,1.2-3.7,2.4-5.5,3.6
		C316.5,100.1,318.4,98.9,320.2,97.7z M312,103.1c-1.4,0.9-2.7,1.8-4.1,2.8C309.2,104.9,310.6,104,312,103.1z M305,107.8
		c-1.3,0.9-2.5,1.7-3.7,2.6C302.5,109.6,303.8,108.7,305,107.8z M298.5,112.4c-1.2,0.9-2.4,1.7-3.6,2.6
		C296.1,114.2,297.3,113.3,298.5,112.4z M292.3,116.9c-1.2,0.9-2.4,1.8-3.6,2.7C289.9,118.7,291.1,117.8,292.3,116.9z M286.4,121.3
		c-1.3,1-2.5,1.9-3.8,2.9C283.8,123.3,285.1,122.3,286.4,121.3z M280.7,125.6c-3.7,2.8-7.1,5.6-10.4,8.2
		C273.6,131.2,277.1,128.4,280.7,125.6z M268.9,135c-1.1,0.9-2.2,1.8-3.3,2.7C266.7,136.8,267.8,135.9,268.9,135z M264.1,139
		c-1,0.8-1.9,1.6-2.8,2.4C262.2,140.6,263.1,139.8,264.1,139z M259.7,142.7c-0.9,0.7-1.7,1.5-2.5,2.2
		C258,144.1,258.8,143.4,259.7,142.7z M255.8,146c-0.8,0.7-1.6,1.4-2.4,2.1C254.2,147.5,255,146.8,255.8,146z M252.3,149.1
		c-0.8,0.7-1.6,1.4-2.4,2.1C250.7,150.6,251.4,149.9,252.3,149.1z M226.6,138.4C179.1,101.9,125.9,74.1,94,58.9l-0.2-7.4
		C121.4,65.4,179.2,96.8,226.6,138.4L226.6,138.4z M87.8,56c-0.6-0.3-1.2-0.5-1.8-0.8C86.6,55.5,87.2,55.7,87.8,56z M81.4,53.1
		c-0.2-0.1-0.5-0.2-0.8-0.3C80.9,52.8,81.2,53,81.4,53.1z M76.1,50.7c-0.4-0.2-0.8-0.4-1.3-0.6C75.3,50.3,75.7,50.5,76.1,50.7z
		 M72.6,73.7c22.9,10.5,67.1,32.1,110.8,61.4C141.6,111.5,100,93.2,72.8,82.1L72.6,73.7z"/>
	<path class="st0" d="M335.8,156.9L375,375.3c0,0,12.4-5,24.1-5c5.8,0,11.4,1.2,15.1,5l39.2-263.2
		C453.4,112.1,352.6,128.9,335.8,156.9L335.8,156.9z M426.6,140.4L395.6,348c-0.9,0.1-1.8,0.1-2.7,0.2l-33-184.1
		C371,156.6,397.2,147.4,426.6,140.4L426.6,140.4z"/>
</g>
</svg>
