<?xml version="1.0" encoding="utf-8"?>
<!-- Generator: Adobe Illustrator 16.0.0, SVG Export Plug-In . SVG Version: 6.00 Build 0)  -->
<!DOCTYPE svg PUBLIC "-//W3C//DTD SVG 1.1//EN" "http://www.w3.org/Graphics/SVG/1.1/DTD/svg11.dtd">
<svg version="1.1" id="Layer_1" xmlns="http://www.w3.org/2000/svg" xmlns:xlink="http://www.w3.org/1999/xlink" x="0px" y="0px"
	 width="71.015px" height="82.608px" viewBox="0 0 71.015 82.608" enable-background="new 0 0 71.015 82.608" xml:space="preserve">
<g>
	<g>
		<path fill="#000100" d="M68.057,10.137l-0.78,4.253l-1.009,4.275l-1.218,4.196l-1.405,4.136l-1.615,4.06l-1.826,3.971
			c-0.66,1.299-1.363,2.577-2.038,3.868c-0.724,1.266-1.491,2.506-2.236,3.761c-0.794,1.223-1.636,2.417-2.453,3.627
			c-0.868,1.174-1.783,2.314-2.673,3.474c-0.943,1.116-1.93,2.198-2.893,3.299c-1.02,1.05-2.074,2.066-3.111,3.101l-3.309,2.898
			l-3.516,2.656l-3.714,2.384l-3.896,2.088l0.352-1.981l1.617,1.63l1.592,1.558l1.639,1.396l1.73,1.13l0.074,0.049
			c0.625,0.407,0.801,1.244,0.393,1.869c-0.238,0.365-0.63,0.578-1.034,0.609l-3.671,0.266c-1.226,0.084-2.446,0.188-3.676,0.255
			l-3.716,0.088l-1.86,0.043c-0.621,0.033-1.24-0.005-1.859-0.038l-3.719-0.187l-1.861-0.094c-0.624-0.021-1.228-0.126-1.842-0.186
			l-7.35-0.861c-0.99-0.116-1.698-1.013-1.582-2.003c0.013-0.111,0.036-0.219,0.067-0.322l0.048-0.15l1.746-5.549l1.455-5.627
			l1.178-5.688l0.905-5.732l0.008-0.052c0.187-1.179,1.293-1.984,2.472-1.798c0.387,0.062,0.74,0.228,1.024,0.456l4.987,4.045
			c0.427,0.321,0.795,0.722,1.185,1.094l1.156,1.133l2.31,2.268l-3.249,0.072l1.874-2.283l1.704-2.421l1.541-2.54
			c0.454-0.885,0.93-1.758,1.37-2.651c0.401-0.915,0.823-1.82,1.21-2.743c0.36-0.938,0.747-1.863,1.088-2.811
			c0.314-0.959,0.655-1.908,0.95-2.876l0.831-2.928c0.247-0.988,0.513-1.971,0.746-2.966l0.648-3.002l0.586-3.027l0.523-3.049
			l0.485-3.066l0.451-3.08l0.897-6.187c0.075-0.519,0.557-0.878,1.076-0.803c0.474,0.069,0.815,0.481,0.813,0.947
			c-0.007,2.094-0.053,4.188-0.126,6.285c-0.095,2.097-0.205,4.197-0.375,6.298c-0.189,2.101-0.401,4.205-0.694,6.307l-0.505,3.148
			c-0.186,1.048-0.409,2.093-0.613,3.142c-0.222,1.046-0.51,2.08-0.763,3.122c-0.279,1.037-0.608,2.063-0.911,3.097
			c-0.331,1.026-0.714,2.04-1.071,3.062c-0.396,1.009-0.851,1.998-1.275,2.998c-0.469,0.982-0.979,1.949-1.469,2.924
			c-0.542,0.95-1.113,1.887-1.671,2.829c-0.615,0.91-1.258,1.803-1.893,2.699L24.2,56.842c-0.757,0.913-2.111,1.04-3.024,0.282
			c-0.048-0.04-0.094-0.081-0.138-0.125l-0.086-0.085l-2.183-2.164l-1.091-1.082c-0.368-0.356-0.71-0.737-1.125-1.052l-4.769-3.962
			l3.504-1.394l-1.039,5.937l-1.368,5.865l-1.685,5.778l-1.98,5.68l-1.467-2.476l7.165,1.066c0.597,0.079,1.195,0.207,1.792,0.247
			l1.791,0.155l3.584,0.313c0.598,0.055,1.196,0.114,1.796,0.104l1.8,0.023L29.282,70c1.208-0.021,2.423-0.08,3.635-0.119
			l3.639-0.13l-0.566,2.527c-0.688-0.468-1.379-0.936-2.054-1.414l-1.792-1.607l-1.625-1.674l-1.553-1.647
			c-0.475-0.504-0.451-1.297,0.053-1.772c0.089-0.084,0.195-0.155,0.299-0.209l3.777-1.9l3.622-2.195l3.45-2.469
			c1.085-0.909,2.19-1.796,3.263-2.724c1.014-0.99,2.049-1.962,3.049-2.967c0.947-1.058,1.917-2.096,2.847-3.169
			c0.878-1.117,1.782-2.216,2.641-3.349c0.81-1.17,1.645-2.323,2.435-3.507c0.74-1.216,1.505-2.418,2.227-3.646
			c0.669-1.259,1.353-2.509,2.001-3.778l1.793-3.883l1.585-3.974l1.377-4.052l1.146-4.123l0.933-4.152l0.731-4.262
			c0.089-0.516,0.578-0.862,1.094-0.773c0.516,0.089,0.861,0.579,0.773,1.094C68.058,10.128,68.057,10.135,68.057,10.137z"/>
	</g>
	<g>
		<g>
			<path fill="#000100" d="M31.219,59.736c0,0,0.516-0.346,1.419-0.95c0.45-0.306,0.995-0.677,1.622-1.103
				c0.311-0.216,0.642-0.444,0.992-0.687c0.335-0.256,0.669-0.543,1.027-0.834c0.705-0.595,1.468-1.237,2.275-1.918
				c0.829-0.651,1.563-1.512,2.382-2.321c0.801-0.832,1.668-1.65,2.41-2.612c0.761-0.939,1.533-1.894,2.307-2.849
				c0.698-1.007,1.397-2.013,2.086-3.004c0.716-0.968,1.29-2.008,1.894-2.979c0.573-0.99,1.243-1.879,1.699-2.825
				c0.507-0.918,0.969-1.795,1.44-2.582c0.231-0.396,0.454-0.776,0.665-1.137c0.189-0.373,0.37-0.726,0.539-1.058
				c0.355-0.657,0.664-1.234,0.938-1.701c0.539-0.939,0.895-1.464,0.895-1.464l0.022-0.033c0.147-0.219,0.444-0.276,0.663-0.128
				c0.167,0.112,0.239,0.313,0.199,0.498c0,0-0.134,0.617-0.452,1.676c-0.153,0.532-0.365,1.168-0.606,1.903
				c-0.129,0.363-0.267,0.75-0.412,1.159c-0.158,0.402-0.371,0.803-0.571,1.232c-0.399,0.86-0.882,1.768-1.374,2.737
				c-0.243,0.487-0.54,0.96-0.855,1.436c-0.312,0.478-0.63,0.966-0.953,1.463c-0.659,0.984-1.303,2.027-2.128,2.965
				c-0.785,0.961-1.583,1.938-2.381,2.914c-0.876,0.904-1.752,1.809-2.615,2.699c-0.82,0.926-1.755,1.711-2.623,2.504
				c-0.437,0.394-0.865,0.78-1.284,1.159c-0.41,0.389-0.817,0.763-1.252,1.087c-0.846,0.671-1.646,1.306-2.384,1.891
				c-0.368,0.293-0.712,0.589-1.053,0.846c-0.35,0.24-0.682,0.469-0.994,0.683c-0.62,0.435-1.161,0.813-1.606,1.124
				c-0.886,0.63-1.393,0.989-1.393,0.989c-0.213,0.151-0.509,0.102-0.66-0.111c-0.151-0.214-0.101-0.509,0.112-0.661
				C31.21,59.741,31.215,59.738,31.219,59.736z"/>
		</g>
		<g>
			<path fill="#000100" d="M56.964,25.125c0,0,0.133-0.139,0.318-0.231c0.188-0.098,0.429-0.162,0.663-0.147
				c0.233,0.015,0.46,0.104,0.623,0.232c0.164,0.12,0.266,0.282,0.266,0.282c0.279,0.45,0.206,1.02-0.145,1.386
				c0,0-0.132,0.138-0.317,0.221c-0.186,0.091-0.425,0.132-0.657,0.099c-0.231-0.033-0.456-0.146-0.618-0.28
				c-0.163-0.129-0.264-0.292-0.264-0.292C56.577,25.981,56.645,25.46,56.964,25.125z"/>
		</g>
		<g>
			<path fill="#000100" d="M58.179,21.598c0.422-0.319,0.819-0.373,1.21-0.363c0.616,0.015,1.104,0.527,1.089,1.144
				c-0.016,0.616-0.527,1.104-1.145,1.088l-0.057-0.002l-0.101-0.008c-0.39-0.031-0.771-0.141-1.126-0.529
				c-0.349-0.383-0.322-0.977,0.061-1.326c0.023-0.021,0.05-0.042,0.074-0.061c0.422-0.313,0.816-0.349,1.204-0.305l-0.214,2.221
				c-0.385-0.065-0.765-0.194-1.119-0.588c-0.319-0.355-0.29-0.903,0.065-1.223C58.14,21.628,58.159,21.612,58.179,21.598z"/>
		</g>
		<g>
			<path fill="#000100" d="M58.819,18.081c0,0,0.171-0.125,0.408-0.199c0.238-0.08,0.545-0.119,0.839-0.08
				c0.358,0.106,0.703,0.298,0.92,0.497c0.222,0.193,0.314,0.391,0.314,0.391c0.199,0.422,0.026,0.923-0.384,1.136l-0.226,0.116
				c0,0-0.185,0.095-0.38,0.133c-0.199,0.044-0.411,0.029-0.607-0.071c-0.291-0.057-0.568-0.192-0.769-0.344
				c-0.201-0.146-0.323-0.32-0.323-0.32C58.327,18.933,58.421,18.374,58.819,18.081z"/>
		</g>
	</g>
</g>
</svg>
