<?xml version="1.0" encoding="utf-8"?>
<!-- Generator: Adobe Illustrator 16.0.0, SVG Export Plug-In . SVG Version: 6.00 Build 0)  -->
<!DOCTYPE svg PUBLIC "-//W3C//DTD SVG 1.1//EN" "http://www.w3.org/Graphics/SVG/1.1/DTD/svg11.dtd">
<svg version="1.1" id="Layer_1" xmlns="http://www.w3.org/2000/svg" xmlns:xlink="http://www.w3.org/1999/xlink" x="0px" y="0px"
	 width="71.015px" height="82.608px" viewBox="0 0 71.015 82.608" enable-background="new 0 0 71.015 82.608" xml:space="preserve">
<g>
	<g>
		<path fill="#000100" d="M8.395,9.806l0.732,4.262l0.932,4.152l1.146,4.123l1.376,4.052l1.586,3.974l1.792,3.883
			c0.649,1.269,1.333,2.519,2.001,3.778c0.722,1.228,1.486,2.43,2.227,3.646c0.79,1.184,1.625,2.337,2.434,3.507
			c0.859,1.133,1.763,2.231,2.641,3.349c0.93,1.073,1.9,2.111,2.847,3.169c1,1.005,2.035,1.977,3.049,2.967
			c1.072,0.928,2.178,1.814,3.262,2.724l3.45,2.469l3.622,2.195l3.778,1.9c0.619,0.31,0.87,1.063,0.561,1.683
			c-0.055,0.109-0.13,0.214-0.209,0.299l-1.553,1.647l-1.625,1.674l-1.792,1.607c-0.675,0.479-1.365,0.946-2.054,1.414l-0.567-2.527
			l3.638,0.13c1.212,0.039,2.427,0.099,3.636,0.119l3.604-0.047l1.801-0.023c0.601,0.011,1.198-0.049,1.796-0.104l3.585-0.313
			l1.79-0.155c0.597-0.04,1.194-0.168,1.792-0.247l7.164-1.066l-1.467,2.476l-1.98-5.68l-1.685-5.778l-1.368-5.865l-1.039-5.937
			l3.504,1.394l-4.769,3.962c-0.415,0.314-0.757,0.695-1.125,1.052l-1.091,1.082l-2.183,2.164l-0.084,0.082
			c-0.842,0.835-2.202,0.829-3.037-0.014c-0.044-0.044-0.088-0.094-0.128-0.141l-2.108-2.543c-0.635-0.896-1.278-1.789-1.893-2.699
			c-0.558-0.942-1.13-1.879-1.671-2.829c-0.49-0.975-1.001-1.941-1.469-2.924c-0.425-1-0.88-1.989-1.275-2.998
			c-0.356-1.021-0.74-2.035-1.071-3.062c-0.303-1.033-0.632-2.06-0.911-3.097c-0.253-1.042-0.541-2.076-0.764-3.122
			c-0.203-1.048-0.427-2.093-0.613-3.142l-0.504-3.148c-0.293-2.102-0.505-4.206-0.694-6.307c-0.17-2.101-0.281-4.202-0.375-6.298
			c-0.073-2.097-0.119-4.191-0.126-6.285c-0.004-0.524,0.417-0.953,0.942-0.957c0.479-0.003,0.879,0.352,0.947,0.813l0.897,6.187
			l0.45,3.08l0.485,3.066l0.522,3.049l0.587,3.027l0.647,3.002c0.232,0.995,0.499,1.978,0.745,2.966l0.832,2.928
			c0.295,0.968,0.636,1.917,0.949,2.876c0.341,0.948,0.729,1.874,1.088,2.811c0.388,0.923,0.81,1.828,1.211,2.743
			c0.439,0.894,0.916,1.767,1.369,2.651l1.541,2.54l1.703,2.421l1.874,2.283l-3.249-0.072l2.311-2.268l1.156-1.133
			c0.389-0.372,0.757-0.772,1.184-1.094l4.987-4.045c0.927-0.752,2.288-0.609,3.04,0.317c0.246,0.304,0.396,0.654,0.455,1.015
			l0.009,0.062l0.905,5.732l1.178,5.688l1.455,5.627l1.745,5.549l0.045,0.142c0.299,0.95-0.229,1.964-1.181,2.263
			c-0.106,0.033-0.224,0.058-0.331,0.071l-7.35,0.861c-0.615,0.06-1.219,0.165-1.842,0.186l-1.861,0.094l-3.72,0.187
			c-0.619,0.033-1.238,0.071-1.858,0.038l-1.86-0.043l-3.716-0.088c-1.229-0.066-2.45-0.171-3.676-0.255l-3.671-0.266
			c-0.744-0.054-1.304-0.701-1.25-1.445c0.032-0.435,0.266-0.807,0.603-1.029l0.081-0.053l1.73-1.13l1.64-1.396l1.592-1.558
			l1.617-1.63l0.352,1.981l-3.896-2.088l-3.714-2.384l-3.516-2.656l-3.309-2.898c-1.037-1.034-2.092-2.051-3.111-3.101
			c-0.964-1.101-1.95-2.183-2.893-3.299c-0.891-1.159-1.805-2.3-2.673-3.474c-0.817-1.21-1.659-2.404-2.454-3.627
			c-0.744-1.255-1.512-2.496-2.235-3.761c-0.676-1.292-1.378-2.569-2.039-3.868l-1.827-3.971l-1.615-4.06l-1.406-4.136l-1.217-4.196
			L7.31,14.391l-0.78-4.253C6.435,9.623,6.775,9.129,7.29,9.035C7.805,8.94,8.298,9.281,8.393,9.795
			C8.393,9.797,8.394,9.804,8.395,9.806z"/>
	</g>
	<g>
		<g>
			<path fill="#000100" d="M42.83,60.516c0,0-0.507-0.359-1.394-0.989c-0.445-0.312-0.985-0.689-1.606-1.124
				c-0.312-0.214-0.644-0.442-0.993-0.683c-0.341-0.257-0.685-0.553-1.053-0.846c-0.738-0.585-1.538-1.22-2.384-1.891
				c-0.435-0.324-0.842-0.698-1.251-1.087c-0.42-0.379-0.849-0.766-1.285-1.159c-0.868-0.793-1.803-1.578-2.624-2.504
				c-0.862-0.891-1.739-1.795-2.615-2.699c-0.798-0.977-1.596-1.953-2.381-2.914c-0.826-0.938-1.469-1.98-2.128-2.965
				c-0.323-0.497-0.642-0.985-0.953-1.463c-0.316-0.476-0.613-0.948-0.855-1.436c-0.493-0.97-0.975-1.877-1.375-2.737
				c-0.2-0.43-0.414-0.83-0.571-1.232c-0.145-0.408-0.283-0.795-0.412-1.159c-0.241-0.734-0.453-1.371-0.606-1.903
				c-0.318-1.059-0.452-1.676-0.452-1.676c-0.056-0.258,0.107-0.513,0.365-0.569c0.196-0.042,0.391,0.042,0.497,0.198l0.022,0.034
				c0,0,0.355,0.525,0.894,1.464c0.275,0.467,0.583,1.043,0.939,1.701c0.169,0.332,0.349,0.686,0.539,1.058
				c0.211,0.361,0.433,0.741,0.665,1.137c0.472,0.787,0.934,1.664,1.44,2.582c0.457,0.946,1.126,1.834,1.699,2.825
				c0.604,0.972,1.178,2.012,1.894,2.979c0.688,0.991,1.387,1.997,2.086,3.004c0.772,0.955,1.545,1.909,2.306,2.849
				c0.743,0.962,1.609,1.78,2.41,2.612c0.819,0.81,1.553,1.67,2.382,2.321c0.808,0.681,1.571,1.323,2.275,1.918
				c0.357,0.291,0.691,0.578,1.027,0.834c0.349,0.242,0.68,0.471,0.991,0.687c0.626,0.426,1.172,0.797,1.622,1.103
				c0.903,0.604,1.419,0.95,1.419,0.95c0.218,0.146,0.276,0.439,0.131,0.656c-0.146,0.218-0.44,0.276-0.657,0.131
				C42.838,60.521,42.833,60.518,42.83,60.516z"/>
		</g>
		<g>
			<path fill="#000100" d="M17.753,26.393c0,0-0.101,0.163-0.264,0.292c-0.163,0.135-0.386,0.247-0.618,0.28
				c-0.232,0.034-0.472-0.007-0.658-0.099c-0.185-0.083-0.317-0.222-0.317-0.221c-0.366-0.383-0.411-0.956-0.144-1.386
				c0,0,0.101-0.162,0.265-0.282c0.163-0.128,0.389-0.217,0.623-0.232c0.234-0.015,0.476,0.049,0.663,0.147
				c0.187,0.093,0.318,0.231,0.318,0.231C17.956,25.475,17.997,26,17.753,26.393z"/>
		</g>
		<g>
			<path fill="#000100" d="M16.53,22.867c-0.354,0.394-0.733,0.523-1.119,0.588l-0.213-2.221c0.388-0.044,0.782-0.009,1.205,0.305
				c0.416,0.309,0.503,0.897,0.194,1.313c-0.019,0.025-0.04,0.051-0.061,0.074c-0.354,0.388-0.736,0.499-1.125,0.529l-0.097,0.008
				c-0.615,0.049-1.152-0.41-1.201-1.024c-0.049-0.615,0.409-1.152,1.024-1.202l0.061-0.003c0.391-0.01,0.788,0.044,1.211,0.363
				c0.381,0.288,0.458,0.831,0.169,1.213C16.563,22.83,16.546,22.85,16.53,22.867z"/>
		</g>
		<g>
			<path fill="#000100" d="M15.974,19.339c0,0-0.122,0.173-0.323,0.32c-0.201,0.151-0.479,0.287-0.77,0.344
				c-0.196,0.1-0.407,0.115-0.607,0.071c-0.195-0.038-0.379-0.133-0.379-0.133l-0.224-0.115c-0.415-0.214-0.583-0.718-0.386-1.137
				c0,0,0.093-0.198,0.315-0.391c0.216-0.199,0.561-0.39,0.92-0.497c0.293-0.04,0.601,0,0.839,0.08
				c0.237,0.074,0.408,0.199,0.408,0.199C16.167,18.375,16.257,18.935,15.974,19.339z"/>
		</g>
	</g>
</g>
</svg>
