<?xml version="1.0" encoding="utf-8"?>
<!-- Generator: Adobe Illustrator 21.1.0, SVG Export Plug-In . SVG Version: 6.00 Build 0)  -->
<svg version="1.1" id="Layer_1" xmlns="http://www.w3.org/2000/svg" xmlns:xlink="http://www.w3.org/1999/xlink" x="0px" y="0px"
	 viewBox="0 0 555 543" style="enable-background:new 0 0 555 543;" xml:space="preserve">
<style type="text/css">
	.st0{fill:#898989;}
</style>
<g>
	<path class="st0" d="M501,66.8c-1.6-1.6-3.8-2.5-6-2.5c-5.5,0-11,0.2-16.4,0.6l0.2-14.1c0-3-1.1-5.9-3.2-8
		c-1.5-1.5-3.5-2.7-5.5-3.2c-26.7,2.5-53.5,4.2-79.1,12.6c-0.3,0.1-0.7,0.2-1,0.3c-25.1,8.9-49,20-70.5,32.2
		c-3.3,2.2-6.6,4.5-9.8,6.7c-6.4,4.5-39.3,26.3-46.5,31.7c-5.8,4.4-11.5,9-17,13.7c-2.1,1.8-4.2,3.9-6.4,5.8
		c-0.9,0.7-1.7,1.5-2.5,2.2c0.4-0.4,0.8-0.7,1.2-1.1c-2.2,1.7-4.5,3.3-7.1,4.1c-10,3.4-20.2-5.8-27.5-11.6c-0.6-0.5-1.2-0.9-1.8-1.4
		c-1.9-1.1-3.4-2.1-3.9-2.9c-14.2-10.4-28.7-20.1-42.9-28.9c-16.6-8-32.2-18-48.3-26.6C86.6,65.5,64.5,57.5,44.6,45.6
		c-3.3-1.1-7-0.6-9.9,1.3c-3.1,2.2-4.9,5.7-4.8,9.5L30.4,73c-5.2-1.9-8.1-3-8.3-3.1c-2.6-0.9-5.5-0.5-7.8,1.2
		c-2.2,1.6-3.5,4.3-3.4,7L22,423.7c0.1,4,3.1,7.3,7,8c92.1,15.7,202.1,84.5,203.2,85.2c1.3,0.8,2.9,1.3,4.5,1.3c1,0,2-0.2,2.9-0.5
		c100-37.1,250.5-74.9,252-75.3c3.7-0.9,6.3-4.2,6.4-8l5.6-361.6C503.5,70.6,502.6,68.4,501,66.8z M456.2,62.2l-0.1,5
		c-57.4,8.4-111.7,33.3-150,54.8c-3.8,2.1-7.5,4.3-11.1,6.4C337.3,98.8,396.6,66,456.2,62.2z M163.4,135.1
		c-41.8-23.6-83.4-41.9-110.6-53l-0.2-8.4C75.5,84.2,119.7,105.8,163.4,135.1z M225.9,493.7l-16.5-297.6
		C183.8,165.4,50.9,106.7,28,96.8l-0.2-6.5c32.8,12.6,126.3,50.8,193.3,102.4c0.8,0.6,1.8,1.1,2.8,1.3c-3.6,1.1-6.2,4.8-6.1,8.7
		l10.8,292.6C227.7,494.8,226.9,494.3,225.9,493.7z M481.2,427.8c-28.7,7.3-147.3,38.2-235.7,69.9l-4-108.2l0.1,0
		c-0.1-0.7-0.1-1.4,0-2.1l-0.1,0.1l-1.2-32.3c-0.1-0.4-0.1-0.7-0.1-1.1v-7.4l-0.2,0.1l-1.3-33.8l0.1,0.1c-0.1-0.4-0.1-0.8-0.1-1.2
		v-0.5l-0.1,0l-4-109.7c-0.1-3.7-2.7-6.6-6.1-7.6c1.1-0.3,2.2-0.8,3.1-1.5C233,191.5,359.5,86,486.6,81.4L481.2,427.8z"/>
</g>
<g>
	<path class="st0" d="M441.1,354c-0.9,3.9-2,6.9-3.1,8.8c-1.2,2-2.4,3.4-3.9,4.4c-1.4,0.9-4.2,2.5-8.3,4.7c-3.1-0.4-5.5-1.3-7.3-2.7
		c-1.8-1.4-3.3-3.3-4.7-5.6c-1.4-2.3-3.3-5.5-5.6-9.4c-5.4-8.6-11.7-17.1-18.9-25.4c-7.2-8.3-14.4-15.4-21.6-21.2
		c-7.4,9.6-13.2,19.3-17.5,29.2c-4.3,9.9-8.8,23.4-13.7,40.4c-2.2,3.5-5.5,5.4-10,5.7c-4.7,0.4-10.8-0.9-18.3-3.8
		c-3.8-1.6-5.9-4.7-6.3-9.5c-0.2-3.2,0.3-7.2,1.5-12.1c1.2-4.6,3.2-9.6,6.1-15c2.9-5.4,7.1-12.7,12.6-21.9
		c5.6-9.2,9.9-16.7,13.1-22.4c3.1-5.7,5.7-11.5,7.6-17.2c-3.1-5.5-6.3-10.6-9.6-15.3c-3.4-4.7-6.6-8.9-9.8-12.6
		c-3.1-3.7-7.1-8.3-12-13.8c-4.9-5.5-8.4-9.7-10.8-12.5c-2.6-3.2-4.1-6.4-4.3-9.7c-0.4-5.9,3.3-10.7,11.4-14.5
		c2.8-1.2,5.2-1.9,7.2-2.1c5.2-0.4,9.1,1.4,11.8,5.3c2.9,4.6,6.6,10.3,11,17.3c4.4,7,8.8,13.1,12.9,18.3c4.2,5.2,8.3,9.4,12.5,12.4
		c3.2-3.8,6.1-8.1,8.9-13c2.8-4.9,5.3-10,7.7-15.3c2.4-5.3,4.8-11,7.3-17.2c2.5-6.2,4.1-10.2,4.9-12c3.6-8.1,8.1-12.4,13.5-12.8
		c5-0.4,10.8,2.9,17.5,9.8c1.9,2,3,4.5,3.2,7.5c0.3,4.3-1,9.6-3.9,15.7c-4.4,10-8.2,18.5-11.4,25.4c-3.2,6.9-6.8,13.9-10.8,21.3
		c-4,7.3-8.2,14.3-12.7,20.8c17.1,22,31.4,39.3,42.9,52c3.8,3.8,6.6,6.8,8.4,9.1c1.9,2.2,2.9,4.5,3,6.7
		C441.5,352.8,441.4,353.6,441.1,354z"/>
</g>
</svg>
