<?xml version="1.0" encoding="utf-8"?>
<!-- Generator: Adobe Illustrator 21.1.0, SVG Export Plug-In . SVG Version: 6.00 Build 0)  -->
<svg version="1.1" id="Layer_1" xmlns="http://www.w3.org/2000/svg" xmlns:xlink="http://www.w3.org/1999/xlink" x="0px" y="0px"
	 viewBox="0 0 555 543" style="enable-background:new 0 0 555 543;" xml:space="preserve">
<style type="text/css">
	.st0{fill:#898989;}
</style>
<g>
	<path class="st0" d="M335.8,156.9L375,375.3c0,0,12.4-5,24.1-5c5.8,0,11.4,1.2,15.1,5l39.2-263.2
		C453.4,112.1,352.6,128.9,335.8,156.9L335.8,156.9z M426.6,140.4l-31,207.6c-0.9,0.1-1.8,0.1-2.7,0.2l-33-184.1
		C371,156.6,397.2,147.4,426.6,140.4L426.6,140.4z"/>
</g>
<g>
	<path class="st0" d="M523,66.8c-1.6-1.6-3.8-2.5-6-2.5c-5.5,0-11,0.2-16.4,0.6l0.2-14.1c0-3-1.1-5.9-3.2-8c-2.1-2.1-5-3.5-8-3.5
		c-3.4,0-6.8,0.1-10.2,0.1l0.1-11.4c0-3-1.1-5.8-3.2-7.9c-2.1-2.1-5-3.3-8-3.3c-96.2,0-189.8,84.7-217.2,111.7
		c-0.1-0.1-0.1-0.1-0.2-0.2c-0.1,0.1-0.3,0.3-0.4,0.4c-0.1,0.2-0.2,0.4-0.4,0.5c-4.3,3.9-31.5,30.1-41,39.7
		c11.8,7.5,23.2,15.5,34,23.8c0.8,0.6,1.8,1.1,2.8,1.3c-3.6,1.1-6.2,4.8-6.1,8.7l10.8,292.6c-0.9-0.5-1.7-1-2.7-1.6l-16.5-297.6
		c-5-6-14.1-13.1-25.7-20.7c0,11.2,4.9,289.2,4.3,316.6c26.3,13.9,43.8,24.6,44.2,24.9c1.3,0.8,2.9,1.3,4.5,1.3c1,0,2-0.2,2.9-0.5
		c100-37.1,250.5-74.9,252-75.3c3.7-0.9,6.3-4.2,6.4-8l5.6-361.6C525.5,70.6,524.6,68.4,523,66.8z M457,37.5v1.8
		c-48.9,11.2-95.7,32.1-133.2,56C360.5,68.8,408.6,41.3,457,37.5z M478.2,62.2l-0.1,5c-57.4,8.4-111.7,33.3-150,54.8
		c-3.8,2.1-7.5,4.3-11.1,6.4C359.3,98.8,418.6,66,478.2,62.2z M314,103.1c-1.4,0.9-2.7,1.8-4.1,2.8C311.2,104.9,312.6,104,314,103.1
		z M261.7,142.7c-0.9,0.7-1.7,1.5-2.5,2.2C260,144.1,260.8,143.4,261.7,142.7z M260.7,313l26.5,18.8l-25.2,15L260.7,313z M262.2,354
		l25.9,7.4l-24.7,26.1L262.2,354z M503.2,427.8c-28.7,7.3-147.3,38.2-235.7,69.9l-4-108.2l35-1.4L281.2,422l36.2-12.6l-6.4,36.2
		l31.7-22.5l5.2,35l24.2-30.2l16.4,30.4l14.2-34.9l25.9,22.8l2.9-36.2l32.9,13l-8.7-34l36.6,1.9L473,362.5l31.3-8L503.2,427.8z
		 M375.2,394c0-7.7,8.2-14,18.4-14c10.2,0,18.4,6.3,18.4,14s-8.2,14-18.4,14C383.4,408,375.2,401.7,375.2,394z M504.3,349.2
		L481.5,333l23.3-13.8L504.3,349.2z M505,310.4l-24.4-7l24.9-26.3L505,310.4z M505.5,275.3l-35.3,1.4l17.4-33.9l-36.2,12.6l6.4-36.2
		L442.5,230L418,380c-12.3-11.2-42.9,0-42.9,0l-31-157.9l-4-3.6l-2.9,36.2l-29.8-11.8c0.4-0.2,0.9-0.4,1.3-0.6
		c-1.7-0.6-3.3-1.3-4.8-2c0.2,1.4,0.5,2.8,0.7,4.2c0.1-0.1,0.3-0.1,0.4-0.2l8,31.6l-36.6-1.9l19.4,28.5l-35.1,8.9l-4-109.7
		c-0.1-3.7-2.7-6.6-6.1-7.6c1.1-0.3,2.2-0.8,3.1-1.5c1.3-1.1,127.8-106.6,254.9-111.2L505.5,275.3z"/>
	<path class="st0" d="M468.2,40.6c-0.2,0-0.4,0-0.5,0.1C467.9,40.6,468,40.6,468.2,40.6z"/>
	<path class="st0" d="M294.3,116.9c-1.2,0.9-2.4,1.8-3.6,2.7C291.9,118.7,293.1,117.8,294.3,116.9z"/>
	<path class="st0" d="M288.4,121.3c-1.3,1-2.5,1.9-3.8,2.9C285.8,123.3,287.1,122.3,288.4,121.3z"/>
	<path class="st0" d="M270.9,135c-1.1,0.9-2.2,1.8-3.3,2.7C268.7,136.8,269.8,135.9,270.9,135z"/>
	<path class="st0" d="M337.8,156.9L377,375.3c0,0,12.4-5,24.1-5c5.8,0,11.4,1.2,15.1,5l39.2-263.2
		C455.4,112.1,354.6,128.9,337.8,156.9L337.8,156.9z M428.6,140.4l-31,207.6c-0.9,0.1-1.8,0.1-2.7,0.2l-33-184.1
		C373,156.6,399.2,147.4,428.6,140.4L428.6,140.4z"/>
</g>
</svg>
