<?xml version="1.0" encoding="utf-8"?>
<!-- Generator: Adobe Illustrator 21.1.0, SVG Export Plug-In . SVG Version: 6.00 Build 0)  -->
<svg version="1.1" id="Layer_1" xmlns="http://www.w3.org/2000/svg" xmlns:xlink="http://www.w3.org/1999/xlink" x="0px" y="0px"
	 viewBox="0 0 555 543" style="enable-background:new 0 0 555 543;" xml:space="preserve">
<style type="text/css">
	.st0{fill:#898989;}
</style>
<g>
	<path class="st0" d="M503,66.8c-1.6-1.6-3.8-2.5-6-2.5c-5.5,0-11,0.2-16.4,0.6l0.2-14.1c0-3-1.1-5.9-3.2-8c-2.1-2.1-5-3.5-8-3.5
		c-3.4,0-6.8,0.1-10.2,0.1l0.1-11.4c0-3-1.1-5.8-3.2-7.9c-2.1-2.1-5-3.3-8-3.3c-96.2,0-189.8,84.7-217.2,111.7
		c-0.1-0.1-0.1-0.1-0.2-0.2c-0.1,0.1-0.3,0.3-0.4,0.4c-0.1,0.2-0.2,0.4-0.4,0.5c-4.3,3.9-31.5,30.1-41,39.7
		c11.8,7.5,23.2,15.5,34,23.8c0.8,0.6,1.8,1.1,2.8,1.3c-3.6,1.1-6.2,4.8-6.1,8.7l10.8,292.6c-0.9-0.5-1.7-1-2.7-1.6l-16.5-297.6
		c-5-6-14.1-13.1-25.7-20.7c0,11.2,4.9,289.2,4.3,316.6c26.3,13.9,43.8,24.6,44.2,24.9c1.3,0.8,2.9,1.3,4.5,1.3c1,0,2-0.2,2.9-0.5
		c100-37.1,250.5-74.9,252-75.3c3.7-0.9,6.3-4.2,6.4-8l5.6-361.6C505.5,70.6,504.6,68.4,503,66.8z M437,37.5v1.8
		c-48.9,11.2-95.7,32.1-133.2,56C340.5,68.8,388.6,41.3,437,37.5z M458.2,62.2l-0.1,5c-57.4,8.4-111.7,33.3-150,54.8
		c-3.8,2.1-7.5,4.3-11.1,6.4C339.3,98.8,398.6,66,458.2,62.2z M294,103.1c-1.4,0.9-2.7,1.8-4.1,2.8C291.2,104.9,292.6,104,294,103.1
		z M241.7,142.7c-0.9,0.7-1.7,1.5-2.5,2.2C240,144.1,240.8,143.4,241.7,142.7z M485.5,275.3v1.8l-0.5,33.3l-0.2,8.8l-1.6,108.6
		c-10.1,2.6-31.3,8.1-58.5,15.5c-0.3,0.1-0.6,0.3-1,0.4c-0.8,0.4-1.7,0.5-2.5,0.5c-49.7,13.6-117.8,33.4-173.8,53.5l-10.8-296
		c-0.1-3.7-2.7-6.6-6.1-7.6c1.1-0.3,2.2-0.8,3.1-1.5C235,191.5,361.5,86,488.6,81.4L485.5,275.3z"/>
	<path class="st0" d="M448.2,40.6c-0.2,0-0.4,0-0.5,0.1C447.9,40.6,448,40.6,448.2,40.6z"/>
	<path class="st0" d="M274.3,116.9c-1.2,0.9-2.4,1.8-3.6,2.7C271.9,118.7,273.1,117.8,274.3,116.9z"/>
	<path class="st0" d="M268.4,121.3c-1.3,1-2.5,1.9-3.8,2.9C265.8,123.3,267.1,122.3,268.4,121.3z"/>
	<path class="st0" d="M250.9,135c-1.1,0.9-2.2,1.8-3.3,2.7C248.7,136.8,249.8,135.9,250.9,135z"/>
</g>
<g>
	<path class="st0" d="M445.1,357c-0.9,3.9-2,6.9-3.1,8.8c-1.2,2-2.4,3.4-3.9,4.4c-1.4,0.9-4.2,2.5-8.3,4.7c-3.1-0.4-5.5-1.3-7.3-2.7
		c-1.8-1.4-3.3-3.3-4.7-5.6c-1.4-2.3-3.3-5.5-5.6-9.4c-5.4-8.6-11.7-17.1-18.9-25.4c-7.2-8.3-14.4-15.4-21.6-21.2
		c-7.4,9.6-13.2,19.3-17.5,29.2c-4.3,9.9-8.8,23.4-13.7,40.4c-2.2,3.5-5.5,5.4-10,5.7c-4.7,0.4-10.8-0.9-18.3-3.8
		c-3.8-1.6-5.9-4.7-6.3-9.5c-0.2-3.2,0.3-7.2,1.5-12.1c1.2-4.6,3.2-9.6,6.1-15c2.9-5.4,7.1-12.7,12.6-21.9
		c5.6-9.2,9.9-16.7,13.1-22.4c3.1-5.7,5.7-11.5,7.6-17.2c-3.1-5.5-6.3-10.6-9.6-15.3c-3.4-4.7-6.6-8.9-9.8-12.6
		c-3.1-3.7-7.1-8.3-12-13.8c-4.9-5.5-8.4-9.7-10.8-12.5c-2.6-3.2-4.1-6.4-4.3-9.7c-0.4-5.9,3.3-10.7,11.4-14.5
		c2.8-1.2,5.2-1.9,7.2-2.1c5.2-0.4,9.1,1.4,11.8,5.3c2.9,4.6,6.6,10.3,11,17.3c4.4,7,8.8,13.1,12.9,18.3c4.2,5.2,8.3,9.4,12.5,12.4
		c3.2-3.8,6.1-8.1,8.9-13c2.8-4.9,5.3-10,7.7-15.3c2.4-5.3,4.8-11,7.3-17.2c2.5-6.2,4.1-10.2,4.9-12c3.6-8.1,8.1-12.4,13.5-12.8
		c5-0.4,10.8,2.9,17.5,9.8c1.9,2,3,4.5,3.2,7.5c0.3,4.3-1,9.6-3.9,15.7c-4.4,10-8.2,18.5-11.4,25.4c-3.2,6.9-6.8,13.9-10.8,21.3
		c-4,7.3-8.2,14.3-12.7,20.8c17.1,22,31.4,39.3,42.9,52c3.8,3.8,6.6,6.8,8.4,9.1c1.9,2.2,2.9,4.5,3,6.7
		C445.5,355.8,445.4,356.6,445.1,357z"/>
</g>
</svg>
