<?xml version="1.0" encoding="utf-8"?>
<!-- Generator: Adobe Illustrator 21.1.0, SVG Export Plug-In . SVG Version: 6.00 Build 0)  -->
<svg version="1.1" id="Layer_1" xmlns="http://www.w3.org/2000/svg" xmlns:xlink="http://www.w3.org/1999/xlink" x="0px" y="0px"
	 viewBox="0 0 555 543" style="enable-background:new 0 0 555 543;" xml:space="preserve">
<style type="text/css">
	.st0{fill:#898989;}
</style>
<g>
	<path class="st0" d="M543.3,65.1c-1.6-1.6-3.8-2.5-6-2.4c-5.5,0-11,0.3-16.4,0.7l0.1-14.1c0-3-1.1-5.9-3.3-8
		c-1.5-1.5-3.5-2.7-5.5-3.2c-26.7,2.7-53.5,4.6-79,13.3c-0.3,0.1-0.7,0.2-1,0.3c-25,9.1-48.8,20.4-70.2,32.8
		c-3.3,2.2-6.6,4.6-9.7,6.8c-6.4,4.6-39.1,26.6-46.2,32.1c-5.8,4.4-11.4,9.1-16.9,13.8c-2.1,1.8-4.2,3.9-6.4,5.9
		c-0.9,0.7-1.7,1.5-2.5,2.2c0.4-0.4,0.8-0.7,1.2-1.1c-2.2,1.7-4.5,3.3-7.1,4.2c-0.8,0.3-1.5,0.4-2.3,0.6c-0.3,0.1-0.6,0.2-0.9,0.3
		c-11.6,3.5-10.2,22.4-6.6,31.2c1.1,2.8,2.8,5,4.7,6.8c4.5,1.9,3.3,2.9,4.3,3.3C293.1,174.7,412.5,85,529,79.8l-2.5,346.4
		c-28.4,7.5-144.7,38.8-232.5,70.9c-0.1,1.3-7.4,0.6-13.8,0.1c-8.1,2.1-13.6,8.1-10.6,15c5.4,3.2,8.6,5.1,8.7,5.2
		c1.3,0.8,2.9,1.3,4.5,1.3c1,0,2-0.2,2.9-0.5c99.7-37.9,249.9-77,251.4-77.4c3.7-0.9,6.3-4.3,6.3-8.1L545.9,71
		C545.8,68.8,544.9,66.6,543.3,65.1z M498.4,65.8c-57.3,8.9-111.4,34.2-149.5,56.1c-3.8,2.1-7.5,4.4-11,6.5
		c42.1-30,101.1-63.3,160.6-67.6L498.4,65.8z"/>
	<path class="st0" d="M123.5,120.7"/>
	<path class="st0" d="M74.2,103"/>
	<path class="st0" d="M172.7,445.4"/>
</g>
<g>
	<path class="st0" d="M270.6,512.8c0.2-2.3,11.8,7.4,12,5c0.5-4.3,5.6-15.2,6.4-20c-6.2,0.5,0,0-31-10.6
		c-85.1-31.1-197.7-61.5-225.2-68.7L30.4,83c112.8,5,224.5,92.2,243.3,107.5c0.3-0.1,0.9-0.4,1.6-0.7c1.5-4.7,3-9.4,4.1-14.3
		c1.8-8.3,1.6-16.9,2.4-25.4c-1.6,0-3.2-0.2-4.7-0.7c-2.5-0.8-4.7-2.4-6.8-4c0.4,0.4,0.8,0.7,1.2,1.1c-0.8-0.7-1.5-1.5-2.4-2.2
		c-2.1-1.9-4.1-3.9-6.2-5.7c-5.3-4.6-10.8-9.1-16.4-13.4c-6.9-5.3-38.6-26.7-44.8-31.1c-3.1-2.2-6.3-4.4-9.4-6.6
		c-20.7-12-43.8-22.9-68-31.8c-0.3-0.1-0.7-0.2-1-0.3c-24.7-8.3-50.7-10.2-76.5-12.8c-1.9,0.5-3.9,1.6-5.4,3.1
		c-2.1,2-3.1,4.8-3.2,7.7l0.1,13.7c-5.2-0.4-10.6-0.7-15.9-0.7c-2.1,0-4.3,0.8-5.8,2.4c-1.6,1.5-2.5,3.7-2.6,5.8l2.5,350.2
		c0.1,3.7,2.6,6.9,6.1,7.8 M215.6,130.1c-3.5-2.1-7-4.2-10.7-6.3C168,102.7,115.6,78.1,60,69.5L60,64.7
		C117.7,68.9,174.8,101.1,215.6,130.1z"/>
	<path class="st0" d="M245.8,156.4"/>
	<path class="st0" d="M295,138.7"/>
	<path class="st0" d="M196.5,481.1"/>
</g>
<g>
	<path class="st0" d="M274.2,184"/>
	<path class="st0" d="M273,177.8l23,333.1c-9.5-1.9-19.8-1.9-19.8-1.9c0.1,1.1,1.2,1.8,2.3,1.4"/>
	<path class="st0" d="M356,227.7"/>
	<path class="st0" d="M257.5,570.1"/>
</g>
</svg>
