<?xml version="1.0" encoding="utf-8"?>
<!-- Generator: Adobe Illustrator 21.1.0, SVG Export Plug-In . SVG Version: 6.00 Build 0)  -->
<svg version="1.1" id="Layer_1" xmlns="http://www.w3.org/2000/svg" xmlns:xlink="http://www.w3.org/1999/xlink" x="0px" y="0px"
	 viewBox="0 0 555 543" style="enable-background:new 0 0 555 543;" xml:space="preserve">
<style type="text/css">
	.st0{fill:#898989;}
</style>
<g>
	<path class="st0" d="M521,66.8c-1.6-1.6-3.8-2.5-6-2.5c-5.5,0-11,0.2-16.4,0.6l0.2-14.1c0-3-1.1-5.9-3.2-8
		c-1.5-1.5-3.5-2.7-5.5-3.2c-26.7,2.5-53.5,4.2-79.1,12.6c-0.3,0.1-0.7,0.2-1,0.3c-25.1,8.9-49,20-70.5,32.2
		c-3.3,2.2-6.6,4.5-9.8,6.7c-6.4,4.5-39.3,26.3-46.5,31.7c-5.8,4.4-11.5,9-17,13.7c-2.1,1.8-4.2,3.9-6.4,5.8c0,0,0,0,0,0
		c-0.9,0.7-1.7,1.5-2.5,2.2c0.4-0.4,0.8-0.7,1.2-1.1c-2.2,1.7-4.5,3.3-7.1,4.1c-10,3.4-20.2-5.8-27.5-11.6c-0.6-0.5-1.2-0.9-1.8-1.4
		c-1.9-1.1-3.4-2.1-3.9-2.9c-14.2-10.4-28.7-20.1-42.9-28.9c-16.6-8-32.2-18-48.3-26.6c-20.4-10.9-42.5-18.9-62.4-30.8
		c-3.3-1.1-7-0.6-9.9,1.3c-3.1,2.2-4.9,5.7-4.8,9.5l0.5,16.6c-5.2-1.9-8.1-3-8.3-3.1c-2.6-0.9-5.5-0.5-7.8,1.2
		c-2.2,1.6-3.5,4.3-3.4,7L42,423.7c0.1,4,3.1,7.3,7,8c92.1,15.7,202.1,84.5,203.2,85.2c1.3,0.8,2.9,1.3,4.5,1.3c1,0,2-0.2,2.9-0.5
		c100-37.1,250.5-74.9,252-75.3c3.7-0.9,6.3-4.2,6.4-8l5.6-361.6C523.5,70.6,522.6,68.4,521,66.8z M476.2,62.2l-0.1,5
		c-57.4,8.4-111.7,33.3-150,54.8c-3.8,2.1-7.5,4.3-11.1,6.4C357.3,98.8,416.6,66,476.2,62.2z M183.4,135.1
		c-41.8-23.6-83.4-41.9-110.6-53l-0.2-8.4C95.5,84.2,139.7,105.8,183.4,135.1z M245.9,493.7l-16.5-297.6
		C203.8,165.4,70.9,106.7,48,96.8l-0.2-6.5c32.8,12.6,126.3,50.8,193.3,102.4c0.8,0.6,1.8,1.1,2.8,1.3c-3.6,1.1-6.2,4.8-6.1,8.7
		l10.8,292.6C247.7,494.8,246.9,494.3,245.9,493.7z M258.7,313l26.5,18.8l-25.2,15L258.7,313z M260.2,354l25.9,7.4l-24.7,26.1
		L260.2,354z M501.2,427.8c-28.7,7.3-147.3,38.2-235.7,69.9l-4-108.2l35-1.4L279.2,422l36.2-12.6l-6.4,36.2l31.7-22.5l5.2,35
		l24.2-30.2l16.4,30.4l14.2-34.9l25.9,22.8l2.9-36.2l32.9,13l-8.7-34l36.6,1.9L471,362.5l31.3-8L501.2,427.8z M373.2,394
		c0-7.7,8.2-14,18.4-14c10.2,0,18.4,6.3,18.4,14s-8.2,14-18.4,14C381.4,408,373.2,401.7,373.2,394z M502.3,349.2L479.5,333
		l23.3-13.8L502.3,349.2z M503,310.4l-24.4-7l24.9-26.3L503,310.4z M503.5,275.3l-35.3,1.4l17.4-33.9l-36.2,12.6l6.4-36.2L440.5,230
		L416,380c-12.3-11.2-42.9,0-42.9,0l-31-157.9l-4-3.6l-2.9,36.2l-29.8-11.8c0.4-0.2,0.9-0.4,1.3-0.6c-1.7-0.6-3.3-1.3-4.8-2
		c0.2,1.4,0.5,2.8,0.7,4.2c0.1-0.1,0.3-0.1,0.4-0.2l8,31.6l-36.6-1.9l19.4,28.5l-35.1,8.9l-4-109.7c-0.1-3.7-2.7-6.6-6.1-7.6
		c1.1-0.3,2.2-0.8,3.1-1.5c1.3-1.1,127.8-106.6,254.9-111.2L503.5,275.3z"/>
	<path class="st0" d="M335.8,156.9L375,375.3c0,0,12.4-5,24.1-5c5.8,0,11.4,1.2,15.1,5l39.2-263.2
		C453.4,112.1,352.6,128.9,335.8,156.9L335.8,156.9z M426.6,140.4l-31,207.6c-0.9,0.1-1.8,0.1-2.7,0.2l-33-184.1
		C371,156.6,397.2,147.4,426.6,140.4L426.6,140.4z"/>
</g>
</svg>
