<?xml version="1.0" encoding="utf-8"?>
<!-- Generator: Adobe Illustrator 16.0.0, SVG Export Plug-In . SVG Version: 6.00 Build 0)  -->
<!DOCTYPE svg PUBLIC "-//W3C//DTD SVG 1.1//EN" "http://www.w3.org/Graphics/SVG/1.1/DTD/svg11.dtd">
<svg version="1.1" id="Capa_1" xmlns="http://www.w3.org/2000/svg" xmlns:xlink="http://www.w3.org/1999/xlink" x="0px" y="0px"
	 width="544.473px" height="560px" viewBox="0 0 544.473 560" enable-background="new 0 0 544.473 560" xml:space="preserve">
<g>
	<path fill="#DC143C" d="M0,0v560h546.501V0H0z M352.743,227.027c-40.979,0-60.065,18.038-82.024,50.505
		c21.914,31.993,41.021,49.767,82.024,49.767h33.132v-36.49l99.227,61.344l-99.227,63.146v-27.459h-33.132
		c-58.821,0-92.81-26.876-117.309-57.621c-24.228,31.506-57.742,59.514-116.378,59.514h-52.59v-60.541h52.59
		c40.032,0,58.519-18.397,80.583-51.455c-22.018-32.575-40.521-50.707-80.583-50.707h-52.59v-60.54h52.59
		c58.385,0,91.861,27.521,116.068,58.555c24.519-31.21,58.55-58.555,117.618-58.555h33.132v-25.566l99.227,63.146l-99.227,61.346
		V227.03h-33.132V227.027z"/>
</g>
</svg>
