<?xml version="1.0" encoding="utf-8"?>
<!-- Generator: Adobe Illustrator 16.0.0, SVG Export Plug-In . SVG Version: 6.00 Build 0)  -->
<!DOCTYPE svg PUBLIC "-//W3C//DTD SVG 1.1//EN" "http://www.w3.org/Graphics/SVG/1.1/DTD/svg11.dtd">
<svg version="1.1" id="Capa_1" xmlns="http://www.w3.org/2000/svg" xmlns:xlink="http://www.w3.org/1999/xlink" x="0px" y="0px"
	 width="544.473px" height="560px" viewBox="199.104 0 544.473 560" enable-background="new 199.104 0 544.473 560"
	 xml:space="preserve">
<g>
	<path d="M199.104,0v560h546.501V0H199.104z M551.847,227.027c-40.978,0-60.065,18.038-82.024,50.505
		c21.914,31.993,41.02,49.766,82.024,49.766h33.132v-36.49l99.227,61.344l-99.227,63.146v-27.459h-33.132
		c-58.821,0-92.809-26.876-117.308-57.621c-24.228,31.506-57.743,59.514-116.379,59.514h-52.589v-60.541h52.589
		c40.033,0,58.519-18.398,80.583-51.455c-22.017-32.576-40.521-50.707-80.583-50.707h-52.589v-60.54h52.589
		c58.385,0,91.862,27.521,116.069,58.554c24.519-31.21,58.55-58.554,117.618-58.554h33.132v-25.567l99.227,63.146l-99.227,61.345
		v-38.383H551.847z"/>
</g>
</svg>
