<?xml version="1.0" encoding="utf-8"?>
<!-- Generator: Adobe Illustrator 21.1.0, SVG Export Plug-In . SVG Version: 6.00 Build 0)  -->
<svg version="1.1" id="Capa_1" xmlns="http://www.w3.org/2000/svg" xmlns:xlink="http://www.w3.org/1999/xlink" x="0px" y="0px"
	 viewBox="0 0 512 512" style="enable-background:new 0 0 512 512;" xml:space="preserve">
<style type="text/css">
	.st0{fill:#898989;}
</style>
<g>
	<path class="st0" d="M345.6,126c-50.7-45.1-130.5-46.9-183.2,3.9c-21.3,20.5-35.4,47.4-39.7,75.8c-5.5,35.5,2.9,70.8,23.4,99.6
		c56.3,78.6,49.1,141.1,49.9,145.7c0,16.4,6.2,31.8,17.5,43.3c11.3,11.5,26.4,17.8,42.5,17.8c33.1,0,60-26.9,60-60
		c0.7-4.3-6.1-72.8,47.7-143.7c17.9-23.6,27.3-51.7,27.3-81.3C391,188.5,374.5,151.7,345.6,126L345.6,126z M256,482
		c-16.5,0-29.5-13.1-30-30h60C286,468.5,272.5,482,256,482z M339.8,290.2c-30,39.6-47.9,84.7-52.6,131.8h-62.6
		c-5-45.3-23.4-91.3-54.2-134.2c-16-22.3-22.4-49.9-18.2-77.6c7.3-47.4,49.7-88.3,103.8-88.3c58.7,0,104.9,47.9,104.9,105
		C361,250,353.7,271.9,339.8,290.2z"/>
	<path class="st0" d="M256,62c8.3,0,15-6.7,15-15V15c0-8.3-6.7-15-15-15s-15,6.7-15,15v32C241,55.3,247.7,62,256,62z"/>
	<path class="st0" d="M419.4,150l26-15c7.2-4.1,9.6-13.3,5.5-20.5c-4.1-7.2-13.3-9.6-20.5-5.5l-26,15c-7.2,4.1-9.6,13.3-5.5,20.5
		C403.1,151.7,412.2,154.1,419.4,150L419.4,150z"/>
	<path class="st0" d="M92.6,304l-26,15c-7.2,4.1-9.6,13.3-5.5,20.5c4.2,7.2,13.3,9.6,20.5,5.5l26-15c7.2-4.1,9.6-13.3,5.5-20.5
		C109,302.3,99.8,299.9,92.6,304z"/>
	<path class="st0" d="M338.5,84.1c7.1,4.1,16.3,1.7,20.5-5.5l15-26c4.1-7.2,1.7-16.3-5.5-20.5c-7.2-4.1-16.3-1.7-20.5,5.5l-15,26
		C328.9,70.8,331.3,80,338.5,84.1z"/>
	<path class="st0" d="M153,78.6c4.2,7.2,13.4,9.6,20.5,5.5c7.2-4.1,9.6-13.3,5.5-20.5l-15-26c-4.1-7.2-13.3-9.6-20.5-5.5
		c-7.2,4.1-9.6,13.3-5.5,20.5L153,78.6z"/>
	<path class="st0" d="M445.4,319l-26-15c-7.2-4.1-16.3-1.7-20.5,5.5c-4.1,7.2-1.7,16.3,5.5,20.5l26,15c7.1,4.1,16.3,1.7,20.5-5.5
		C455,332.3,452.5,323.2,445.4,319z"/>
	<path class="st0" d="M107.6,124l-26-15c-7.2-4.1-16.3-1.7-20.5,5.5s-1.7,16.3,5.5,20.5l26,15c7.1,4.1,16.3,1.7,20.5-5.5
		C117.2,137.3,114.8,128.2,107.6,124z"/>
	<path class="st0" d="M466,212h-30c-8.3,0-15,6.7-15,15s6.7,15,15,15h30c8.3,0,15-6.7,15-15S474.3,212,466,212z"/>
	<path class="st0" d="M91,227c0-8.3-6.7-15-15-15H46c-8.3,0-15,6.7-15,15s6.7,15,15,15h30C84.3,242,91,235.3,91,227z"/>
	<path class="st0" d="M275.4,216.4L256,235.8l-19.4-19.4c-5.9-5.9-15.4-5.9-21.2,0s-5.9,15.4,0,21.2l25.6,25.6V317
		c0,8.3,6.7,15,15,15s15-6.7,15-15v-53.8l25.6-25.6c5.9-5.9,5.9-15.4,0-21.2C290.7,210.5,281.3,210.5,275.4,216.4L275.4,216.4z"/>
</g>
</svg>
