<?xml version="1.0" encoding="utf-8"?>
<!-- Generator: Adobe Illustrator 21.1.0, SVG Export Plug-In . SVG Version: 6.00 Build 0)  -->
<svg version="1.1" id="Capa_1" xmlns="http://www.w3.org/2000/svg" xmlns:xlink="http://www.w3.org/1999/xlink" x="0px" y="0px"
	 viewBox="0 0 512 512" style="enable-background:new 0 0 512 512;" xml:space="preserve">
<style type="text/css">
	.st0{fill:#898989;}
</style>
<g>
	<path class="st0" d="M345.6,126c-50.7-45.1-130.5-46.9-183.2,3.9c-21.3,20.5-35.4,47.4-39.7,75.8c-5.5,35.5,2.9,70.8,23.4,99.6
		c56.3,78.6,49.1,141.1,49.9,145.7c0,16.4,6.2,31.8,17.5,43.3s26.4,17.8,42.5,17.8c33.1,0,60-26.9,60-60
		c0.7-4.3-6.1-72.8,47.7-143.7c17.9-23.6,27.3-51.7,27.3-81.3C391,188.5,374.5,151.7,345.6,126L345.6,126z M256,482
		c-16.5,0-29.5-13.1-30-30h60C286,468.5,272.5,482,256,482z M339.8,290.2c-30,39.6-47.9,84.7-52.6,131.8h-62.6
		c-5-45.3-23.4-91.3-54.2-134.2c-16-22.3-22.4-49.9-18.2-77.6c7.3-47.4,49.7-88.3,103.8-88.3c58.7,0,104.9,47.9,104.9,105
		C361,250,353.7,271.9,339.8,290.2z"/>
	<path class="st0" d="M275.4,216.4L256,235.8l-19.4-19.4c-5.9-5.9-15.4-5.9-21.2,0s-5.9,15.4,0,21.2l25.6,25.6V317
		c0,8.3,6.7,15,15,15s15-6.7,15-15v-53.8l25.6-25.6c5.9-5.9,5.9-15.4,0-21.2C290.7,210.5,281.3,210.5,275.4,216.4L275.4,216.4z"/>
</g>
</svg>
