<?xml version="1.0" encoding="utf-8"?>
<!-- Generator: Adobe Illustrator 16.0.0, SVG Export Plug-In . SVG Version: 6.00 Build 0)  -->
<!DOCTYPE svg PUBLIC "-//W3C//DTD SVG 1.1//EN" "http://www.w3.org/Graphics/SVG/1.1/DTD/svg11.dtd">
<svg version="1.1" id="Layer_1" xmlns="http://www.w3.org/2000/svg" xmlns:xlink="http://www.w3.org/1999/xlink" x="0px" y="0px"
	 width="512px" height="512px" viewBox="0 0 512 512" enable-background="new 0 0 512 512" xml:space="preserve">
<path fill="#FFFFFF" stroke="#FFFFFF" stroke-miterlimit="10" d="M301.568,88.9c-11.398,2.801-20.5,13-22.398,25.101
	c-0.4,2.7-0.201,30.2,0.5,61.2c0.697,31,1.299,62,1.299,69l0.1,12.6l-6.398,4.6c-13.301,9.5-22.201,22.5-26.801,39.4
	c-3.199,11.5-3.199,36.1,0,48.7c8.301,32.698,39.801,69.5,71,83c18.199,7.898,37.4,11.1,62.102,10.198
	c24.398-0.8,40.6-6.1,54.799-17.6c12.102-9.9,27.1-33.9,30.701-49.101c4.299-17.899,7.1-47.5,8.6-91.101c1-27,0.9-31.6-0.398-36.198
	c-3.9-13.4-19.301-22.102-33.201-18.9l-4.199,0.9l-0.6-3.602c-0.301-2-1.5-5.398-2.701-7.6c-7.9-14.9-26-20.301-41.5-12.4
	c-2.4,1.2-4,1.5-4.199,0.9c-1.301-3.7-7.5-10.9-11.6-13.5c-4.602-2.801-5.602-3-14.602-3c-9.1,0-10,0.199-14.699,3.199l-5.102,3.101
	l-0.6-11.101c-0.301-6.197-1.102-24.497-1.602-40.697c-0.6-16.2-1.299-31.102-1.699-33c-1-6-6.301-14.9-11.1-18.602
	C320.068,88.9,310.17,86.8,301.568,88.9z"/>
<g transform="translate(0.000000,512.000000) scale(0.100000,-0.100000)">
	<path d="M2371.999,3587.248c-115.996,115.996-152.998,147.002-174.004,147.002c-45,0-57.998-32.002-57.998-137.002v-92.998
		l-665.996-2.002l-666.006-2.998l-23.994-27.998c-32.998-39.004-31.006-81.006,5-118.008l28.994-28.994h661.006h660.996v-100
		c0-87.002,2.998-102.998,20-120c37.998-37.998,57.002-27.002,212.002,127.998c124.004,124.004,147.998,152.002,147.998,177.002
		C2519.997,3435.246,2496.003,3463.244,2371.999,3587.248z"/>
	<path d="M1981.003,3896.252l-29.004,32.998l-645.996,2.998l-646.006,2.998v90c0,82.002-1.992,92.002-25,114.004
		c-15.996,15.996-35,25-56.992,25c-28.008,0-50-17.998-180-147.998c-123.008-123.008-148.008-153.008-148.008-177.002
		c0-24.004,25-54.004,147.998-177.002c130-130,152.002-147.998,180-147.998c22.002,0,41.006,8.994,57.002,25
		c22.998,22.002,25,32.002,25,113.994v91.006l646.006,2.002l645.996,2.998l29.004,32.998
		C2017.995,3823.244,2017.995,3855.246,1981.003,3896.252z"/>
	<path stroke="#FFFFFF" stroke-miterlimit="10" d="M3015.681,4241.003c-113.984-28.008-205-130-223.984-251.006
		c-4.004-27.002-2.012-302.002,5-612.002c6.992-310,12.988-620,12.988-690l0.996-125.996l-63.984-45.996
		c-133.008-95-222.012-225-268.008-394.004c-31.992-115-31.992-360.996,0-487.002c83.008-326.992,398.008-695,710-830
		c181.992-78.994,374.004-110.996,620.996-101.992c244.004,7.998,405.996,60.996,548.008,175.996
		c120.996,99.004,270.996,339.004,306.992,490.996c43.008,179.004,70.996,475,85.996,911.006c10,270,9.004,315.996-3.984,361.992
		c-39.004,134.004-193.008,221.006-332.012,189.004l-41.992-9.004l-5.996,36.006c-3.008,20-15,53.994-27.012,75.996
		c-79.004,149.004-260,202.998-415,124.004c-24.004-12.002-40-15-41.992-9.004c-13.008,37.002-75,109.004-115.996,135
		c-46.016,27.998-56.016,30-146.016,30c-90.996,0-100-2.002-146.992-32.002l-50.996-30.996l-5.996,110.996
		c-3.008,62.002-11.016,245-16.016,407.002c-5.996,162.002-12.988,311.006-16.992,330c-10,60-63.008,149.004-110.996,186.006
		C3200.681,4241.003,3101.697,4261.999,3015.681,4241.003z M3180.681,4079.997c70-50,69.004-42.002,95-747.998
		c22.012-632.998,23.008-635.996,45-654.004c28.008-22.998,62.012-22.998,89.004,0c15.996,14.004,25.996,46.006,45.996,167.002
		c16.016,92.998,32.012,159.004,43.008,175c10,14.004,39.004,35,64.004,47.998c59.004,30,110,22.002,154.004-22.998
		c40.996-40,53.984-87.998,53.984-197.002c0-63.994,4.004-90.996,15-101.992c24.004-23.008,52.012-28.008,82.012-14.004
		c22.988,10.996,30,22.998,39.004,70.996c13.984,68.008,33.984,101.006,76.992,127.002c95.996,59.004,215.996,11.006,246.992-97.998
		c5-20,10-105.996,10-190.996c0-172.002,6.016-191.006,63.008-191.006c55.996,0,66.992,22.002,66.992,127.002v94.004l35,15
		c68.008,27.998,134.004,13.994,185-40c32.012-36.006,35-87.002,21.016-422.002c-13.008-302.002-24.004-455.996-47.012-624.004
		c-21.992-166.992-40.996-232.998-95-340c-124.004-241.992-266.992-358.994-499.004-405.996c-128.984-25.996-418.984-15.996-555,20
		c-193.984,50.996-336.992,135-490,290c-232.988,235-327.988,447.998-328.984,730.996c-1.016,145,10,206.006,56.992,305
		c26.992,58.008,136.992,190,156.992,190c4.004,0,9.004-103.994,12.012-230.996c4.004-227.998,4.004-232.002,26.992-250
		c30-24.004,62.012-24.004,92.012,0l22.988,17.998l-20.996,1010.996c-15,682.002-19.004,1022.002-11.992,1046.006
		c11.992,43.994,53.984,93.994,93.984,112.002C3067.693,4116.003,3141.697,4107.995,3180.681,4079.997z"/>
</g>
</svg>
