<?xml version="1.0" encoding="utf-8"?>
<!-- Generator: Adobe Illustrator 21.1.0, SVG Export Plug-In . SVG Version: 6.00 Build 0)  -->
<svg version="1.1" id="Layer_1" xmlns="http://www.w3.org/2000/svg" xmlns:xlink="http://www.w3.org/1999/xlink" x="0px" y="0px"
	 viewBox="0 0 45 30" style="enable-background:new 0 0 45 30;" xml:space="preserve">
<g>
	<g>
		<g>
			<path d="M18.7,3.1c7.9,2.7,15.7,5.5,23.5,8.6c-0.1-0.5-0.2-1-0.2-1.5C35.7,15.9,29,21.2,22,26c0.6,0.2,1.2,0.5,1.9,0.7
				c-0.2-4.2-0.7-8.2-1.8-12.3c-1-3.8-3.5-7.9-3.5-11.9c-0.6,0.4-1.1,0.7-1.7,1.1c5.5,1.6,10.1,6,14.6,9.4c0.4-0.7,0.7-1.3,1.1-2
				C28.8,9.3,25,7.6,21.2,5.9c-0.3,0.7-0.5,1.3-0.8,2c3.2,1.2,6.5,2.2,9.8,3.3c1,0.4,1.5-1.1,0.6-1.5c-3-1.6-6.1-2.9-9.4-3.9
				c0.2,0.5,0.3,1,0.5,1.5c0.2-0.1,0.4-0.2,0.6-0.3c0.6-0.2,0.8-1.1,0.4-1.6c-1.2-1.4-2.6-1.9-4.4-1.7c-0.7,0.1-1.2,1.1-0.6,1.7
				c1.7,1.8,3.8,2.5,6.2,2c0.7-0.1,1-0.8,0.8-1.5c-1-2.5-3.5-3.4-5.9-2.5c-0.7,0.2-0.7,1.1-0.4,1.6c1.5,2.2,3.8,3.1,6.2,4
				c3.4,1.4,6.8,2.5,10.3,3.6c1.3,0.4,2.1-1.6,0.8-2c-0.7-0.2-1.5-0.5-2.2-0.7c-1.3-0.4-2.1,1.6-0.8,2c0.7,0.3,1.5,0.5,2.2,0.8
				c0.3-0.7,0.5-1.4,0.8-2C33,9.9,30.3,9,27.6,8c-2.6-1-5.8-1.8-7.5-4.2c-0.1,0.5-0.3,1.1-0.4,1.6c1.6-0.4,2.6,0,3.2,1.4
				c0.3-0.5,0.5-1,0.8-1.5c-1.7,0.3-3,0-4.3-1.3c-0.2,0.6-0.4,1.1-0.6,1.7c0.8,0.3,1.7,0.6,2.5,0.9c0.1-0.5,0.2-1,0.4-1.6
				c-0.7,0.2-0.9,0.4-1.3,1c-0.4,0.5-0.2,1.4,0.5,1.5c3.3,0.9,6.4,2.1,9.5,3.5c0.2-0.5,0.4-1,0.6-1.5c-3.2-1.2-6.4-2.6-9.6-3.8
				c-1.3-0.5-2,1.4-0.8,2c3.8,1.7,7.6,3.4,11.3,5.2c1.2,0.6,2-1.2,1.1-2c-4.8-3.7-9.4-7.8-15.1-9.9c-0.7-0.3-1.7,0.2-1.7,1.1
				c-0.3,4.1,2,7.8,3.1,11.6c1.3,4.3,2,8.7,2.4,13.2c0.1,0.9,1.2,1.2,1.9,0.7c6.9-5,13.4-10.4,19.6-16.2c0.5-0.5,0.4-1.3-0.2-1.5
				C35,7,27.2,4.2,19.2,1.9C18.4,1.7,17.9,2.8,18.7,3.1L18.7,3.1z"/>
		</g>
	</g>
	<g>
		<g>
			<path d="M33.9,13.4c-2.2-1.2-4.4-2.3-6.6-3.4c-0.2,0.6-0.5,1.3-0.7,1.9c1.6,0.4,8.5,3,8.3-0.4c-0.1-1.6-2.7-2.8-3.8-3.5
				c-2.2-1.4-4.5-2.6-6.9-3.7c-0.3,0.7-0.5,1.3-0.8,2c3.6,1.1,6.6,3.6,10.4,4.5c1.1,0.3,1.9-1,1-1.8c-2.8-2.5-6.1-3.9-9.9-4
				c-1,0-1.7,1.3-0.7,2c3.2,2.4,7.4,2.6,10.6,5.1c0.2-0.7,0.3-1.3,0.5-2c-2.9,0.2-5.8,0.4-8.7,0.6c-1.5,0.1-1.1,2.3,0.4,2.2
				c3.8-0.1,7.5-0.3,11.3-0.4c-0.1-0.8-0.3-1.5-0.4-2.3c-2.2,0.7-4.4,1.3-6.6,2c-1.5,0.4-1.2,2.5,0.4,2.4c3.1-0.2,6-0.7,9-1.6
				c1.1-0.3,1.4-1.9,0.2-2.3c-2.1-0.8-4.1-1.6-6.2-2.4c-0.2,0.8-0.4,1.6-0.5,2.3c2.5,0.3,4.8,0.8,7.2,1.7c0-0.7,0-1.5-0.1-2.2
				c-2.1,1-4.3,2.1-6.4,3.1c-1.2,0.6-0.7,2.6,0.7,2.3c1-0.3,2-0.5,3-0.8c-0.2-0.8-0.5-1.5-0.7-2.3c-3.6,2-6.9,4.3-9.9,7
				c-1.2,1.1,0.3,2.9,1.5,1.9c2.4-1.8,4.4-3.8,6.2-6.1c0.8-1.1-0.4-2.3-1.5-1.9c-2.8,1-5.6,2.2-8.2,3.5c0.5,0.6,1,1.3,1.5,1.9
				c1.2-1.8,2.5-3.6,3.7-5.3c0.7-1-0.4-2.5-1.5-1.9c-1.2,0.6-3.9,2.6-4.7,2c-0.8-0.6,0-5.6,0.2-6.6c-0.8,0-1.7,0.1-2.5,0.1
				c0.4,2.9,0.8,5.7,1.1,8.6c0.2,1.6,2.7,1.2,2.5-0.4c-0.6-4.7-2.4-8.9-5.4-12.6c-0.9-1.1-2.7,0-2.1,1.3c1.6,3.7,3.1,7.4,4.5,11.1
				c0.5,1.4,2.7,0.7,2.4-0.7c-0.6-3.1-1.3-8.6-4.9-9.6C19.6,4.4,18.7,5,18.8,6c0.6,4.5,3.7,7.9,4.6,12.2c0.8-0.2,1.6-0.5,2.4-0.7
				c-1.2-3.8-2.4-7.5-3.6-11.3c-0.4-1.4-2.8-0.7-2.4,0.7c0.6,2.4,1.4,4.8,2.4,7.1c0.7,1.7,1.6,4.4,3.1,5.6c3.2,2.6,5.7-4.9,6.4-6.8
				c0.4-1.2-1-2.3-2-1.4c-2.6,2.2-4.6,4.8-6,8c-0.4,1,0.7,2.1,1.7,1.6c2.4-1.3,4.8-2.5,7.2-3.7c-0.5-0.6-1-1.3-1.6-1.9
				c-0.8,1.2-1.6,2.3-2.8,3.2c-0.6,0.5-1.3,0.9-2,1.3c0.2,1.5,0.3,1.4,0.4-0.1c1-2.8,1.1-6.4,1.6-9.3c0.2-1.4-2.1-2-2.5-0.6
				c-0.9,3.2-1.3,6.4-1.3,9.7c0,1.2,1.6,2.1,2.4,0.9c1.3-2,4.5-10.9-1-10.1C21,11,22.9,20.9,23.4,23.8c0.2,1,1.4,1.5,2.2,0.8
				c1.6-1.3,2.7-2.7,3.5-4.6c0.6-1.3-1.1-2.2-2.1-1.5c-1.9,1.3-3.7,2.7-5,4.6c-0.8,1.1,0.4,2.5,1.6,2c2.1-0.9,4.1-1.9,6.1-3.2
				c-0.6-0.7-1.1-1.4-1.7-2.1c-1.5,1-3,2-4.5,3c-1.5,1,0.2,3,1.7,2.1c0.3-0.2,0.5-0.3,0.8-0.5c1.5-0.9-0.2-3-1.7-2.1
				c-0.3,0.2-0.5,0.3-0.8,0.5c0.6,0.7,1.1,1.4,1.7,2.1c1.5-1,3-2,4.5-3c1.5-1-0.2-3-1.7-2.1c-1.8,1.1-3.6,2-5.5,2.8
				c0.5,0.7,1.1,1.3,1.6,2c1.2-1.8,2.8-2.9,4.5-4.1c-0.7-0.5-1.4-1-2.1-1.5c-0.7,1.4-1.5,2.5-2.7,3.4c0.7,0.3,1.4,0.5,2.2,0.8
				c-0.4-2.5-0.6-5-0.5-7.6c0-0.5,0.1-1.1,0.1-1.6c0.6-1,0.7-1.1,0.6,0c0.4,1.3-0.9,3.5-1.6,4.6c0.8,0.3,1.6,0.6,2.4,0.9
				c0-3.1,0.3-6,1.1-9c-0.8-0.2-1.7-0.4-2.5-0.6c-0.5,3.1-1.1,6.2-1.6,9.3c-0.2,1.1-0.5,2.5,0.7,3.1c2.8,1.4,7.1-3.8,8.3-5.7
				c0.7-1-0.3-2.6-1.6-1.9c-2.4,1.2-4.8,2.5-7.2,3.7c0.6,0.5,1.1,1.1,1.7,1.6c1.2-2.8,2.8-5,5.2-6.9c-0.7-0.5-1.3-1-2-1.4
				c-0.6,1.6-1.6,5.2-3.3,5.7c0.4,0,0.9,0.1,1.3,0.1c-1.4-0.8-2.4-3.9-2.9-5.3c-0.8-2-1.5-3.9-2-6c-0.8,0.2-1.6,0.5-2.4,0.7
				c1.2,3.8,2.4,7.5,3.6,11.3c0.4,1.4,2.7,0.7,2.4-0.7c-0.9-4.3-4-7.8-4.6-12.2C20.7,6,20.2,6.5,19.6,7c2.3,0.6,3,5.8,3.3,7.6
				c0.8-0.2,1.6-0.5,2.4-0.7c-1.4-3.7-2.9-7.4-4.5-11.1c-0.7,0.4-1.4,0.9-2.1,1.3c2.8,3.3,4.4,7.1,4.9,11.4c0.8-0.1,1.7-0.3,2.5-0.4
				c-0.4-2.9-0.8-5.7-1.1-8.6c-0.2-1.4-2.3-1.3-2.5,0.1c-0.3,2.3-1.2,7.4,0.6,9.3c2,2,5.7-1.2,7.4-2.1c-0.5-0.6-1-1.3-1.5-1.9
				c-1.2,1.8-2.5,3.6-3.7,5.4c-0.7,1,0.4,2.5,1.5,1.9c2.7-1.4,5.4-2.5,8.2-3.5c-0.5-0.6-1-1.2-1.5-1.9c-1.7,2.2-3.5,4-5.7,5.7
				c0.5,0.6,1,1.3,1.5,1.9c2.9-2.6,5.9-4.9,9.3-6.8c1.1-0.6,0.7-2.7-0.7-2.3c-1,0.3-2,0.5-3,0.8c0.2,0.8,0.5,1.5,0.7,2.3
				c2.1-1,4.3-2.1,6.4-3.1c0.9-0.4,0.9-1.8-0.1-2.2c-2.6-0.9-5.1-1.6-7.8-1.9c-1.4-0.2-1.8,1.8-0.5,2.3c2.1,0.8,4.1,1.6,6.2,2.4
				c0.1-0.8,0.2-1.6,0.2-2.3c-2.9,0.9-5.9,1.4-9,1.6c0.2,0.8,0.5,1.5,0.7,2.3c2.2-0.7,4.4-1.4,6.6-2c1.4-0.4,0.5-2.3-0.7-2.2
				c-3.8,0.2-7.5,0.4-11.3,0.5c0.1,0.7,0.2,1.5,0.4,2.2c2.9-0.2,5.8-0.4,8.7-0.6c1-0.1,1.2-1.4,0.5-2c-3.2-2.5-7.4-2.7-10.7-5
				c-0.2,0.7-0.5,1.3-0.7,2c3.4,0,6.4,1.1,8.9,3.5c0.3-0.6,0.7-1.2,1-1.8c-3.7-1-6.7-3.5-10.3-4.6c-1.3-0.4-2,1.4-0.8,2
				c2.4,1,4.7,2.2,6.9,3.6c0.5,0.3,0.9,0.6,1.4,0.9c0.5,0.4,0.5,0.4-0.2,0.2c-1.3,0.2-3-0.6-4.3-1c-1.2-0.3-1.9,1.4-0.7,1.9
				c2.3,1,4.5,1.9,6.7,3C34.3,15.3,34.7,13.8,33.9,13.4L33.9,13.4z"/>
		</g>
	</g>
	<g>
		<g>
			<path d="M25.3,20.9c-0.2-0.4-0.5-0.6-0.8-0.9c-0.6-0.6-0.5-1.1-0.6-1.9c0-1.4-0.3-3,0-4.4c-0.2,0.3-0.3,0.6-0.5,0.8
				c-0.1,0.1-0.3,0.1-0.4,0.2c0.5-0.1,0.8-0.5,0.9-1c0,0,0,0,0-0.1c0-0.4-0.1-0.8-0.5-1.1c0,0-0.1,0-0.1-0.1c-0.5-0.3-1.1-0.3-1.5,0
				c-0.7,0.5-0.6,1.2-0.6,2c0.1,1.2,0.1,2.4,0.2,3.5c0.1,0.9,0,1.9,0.6,2.6c0.6,0.7,1.5,0.2,2.1,0.8C24.8,22,25.6,21.6,25.3,20.9
				L25.3,20.9z"/>
		</g>
	</g>
	<g>
		<g>
			<path d="M21.6,14c-3.3-0.7-7-0.4-10.3-0.2C8.2,14,4.7,14.3,2,16c-0.9,0.6-0.1,2,0.8,1.8c3.1-0.5,6.1-1.7,9.3-2
				c3.2-0.3,6.4,0,9.5-0.5C22.4,15.2,22.3,14.2,21.6,14L21.6,14z"/>
		</g>
	</g>
</g>
</svg>
