<?xml version="1.0" encoding="utf-8"?>
<!-- Generator: Adobe Illustrator 21.1.0, SVG Export Plug-In . SVG Version: 6.00 Build 0)  -->
<svg version="1.1" id="Layer_1" xmlns="http://www.w3.org/2000/svg" xmlns:xlink="http://www.w3.org/1999/xlink" x="0px" y="0px"
	 viewBox="0 0 45 44" style="enable-background:new 0 0 45 44;" xml:space="preserve">
<g>
	<g>
		<g>
			<path d="M34.4,20c-4.2,7.2-8.5,14.4-13,21.4c0.5,0,1,0,1.6,0.1c-4.5-7.2-8.3-14.8-11.7-22.6c-0.4,0.6-0.7,1.1-1.1,1.7
				c4.1,0.6,8.2,0.9,12.4,0.6c4-0.3,8.5-2,12.4-1.1c-0.2-0.6-0.5-1.3-0.7-1.9c-2.7,5.1-7.8,8.8-12,12.6c0.6,0.5,1.1,0.9,1.7,1.4
				c2.4-3.4,4.8-6.8,7.2-10.2c-0.6-0.4-1.2-0.8-1.8-1.1c-1.8,2.9-3.4,6-5.2,9c-0.6,0.9,0.8,1.7,1.4,0.9c2.1-2.7,4-5.5,5.6-8.5
				c-0.5,0-1.1,0.1-1.6,0.1c0.1,0.2,0.1,0.4,0.2,0.6c0.1,0.6,0.9,1,1.5,0.7c1.6-0.9,2.4-2.1,2.5-4c0.1-0.7-0.9-1.4-1.5-0.9
				c-2.1,1.4-3.1,3.2-3.2,5.7c0,0.7,0.6,1.2,1.3,1c2.6-0.6,4-2.8,3.6-5.3c-0.1-0.7-0.9-0.9-1.5-0.7c-2.4,1.1-3.8,3.2-5.2,5.3
				c-2,3-3.8,6.2-5.5,9.4c-0.6,1.2,1.2,2.4,1.9,1.2c0.4-0.7,0.8-1.4,1.2-2.1c0.7-1.2-1.1-2.4-1.8-1.1c-0.4,0.7-0.8,1.4-1.2,2.1
				c0.6,0.4,1.2,0.8,1.9,1.2c1.3-2.5,2.7-5.1,4.2-7.5c1.5-2.4,2.9-5.3,5.5-6.6c-0.5-0.2-1-0.5-1.5-0.7c0.1,1.6-0.5,2.6-2,2.8
				c0.4,0.3,0.8,0.7,1.3,1c0-1.7,0.6-3,2.1-4c-0.5-0.3-1-0.6-1.5-0.9c-0.5,0.8-0.9,1.5-1.4,2.3c0.5,0.2,1,0.4,1.5,0.7
				c-0.1-0.8-0.2-0.9-0.7-1.5c-0.4-0.5-1.3-0.4-1.6,0.1c-1.5,3.1-3.3,5.9-5.3,8.7c0.5,0.3,0.9,0.6,1.4,0.9c1.8-2.9,3.8-5.8,5.6-8.7
				c0.7-1.2-1-2.3-1.8-1.1c-2.4,3.4-4.8,6.8-7.3,10.1c-0.8,1.1,0.8,2.2,1.7,1.4c4.5-4,9.5-7.7,12.6-12.9c0.4-0.7,0.1-1.7-0.7-1.9
				c-3.9-1-8,0.5-12,0.9c-4.5,0.4-9,0.3-13.4-0.2c-0.9-0.1-1.4,1-1.1,1.7c3.6,7.7,7.6,15.1,12.2,22.3c0.4,0.6,1.2,0.7,1.6,0.1
				c4.5-7.1,8.7-14.2,12.5-21.7C35.8,19.9,34.8,19.2,34.4,20L34.4,20z"/>
		</g>
	</g>
	<g>
		<g>
			<path d="M21.4,32.9c1.5-1.9,3.1-3.8,4.6-5.8c-0.6-0.4-1.2-0.7-1.7-1.1c-0.7,1.5-4.5,7.7-1.2,8.2c1.6,0.2,3.3-2.1,4.1-3
				c1.8-1.9,3.4-3.9,4.9-6c-0.6-0.4-1.2-0.8-1.8-1.1c-1.8,3.4-4.8,5.8-6.4,9.3c-0.5,1.1,0.6,2,1.6,1.3c3-2.3,5-5.2,5.8-9
				c0.2-1-0.9-1.9-1.8-1.1c-3,2.7-4,6.8-7,9.5c0.6,0.3,1.2,0.6,1.9,0.8c0.4-2.9,0.7-5.8,1.1-8.7c0.2-1.4-2-1.5-2.3-0.1
				c-0.6,3.7-1.2,7.4-1.7,11.2c0.8,0,1.6,0,2.4,0.1c-0.2-2.3-0.5-4.6-0.7-6.9c-0.2-1.5-2.2-1.6-2.4-0.1c-0.4,3-0.4,6.1-0.1,9.1
				c0.1,1.1,1.5,1.8,2.2,0.7c1.2-1.9,2.4-3.8,3.6-5.6c-0.7-0.3-1.5-0.7-2.2-1c-0.7,2.4-1.7,4.6-3,6.7c0.7,0.1,1.4,0.2,2.2,0.4
				c-0.6-2.3-1.2-4.6-1.8-6.9c-0.3-1.3-2.4-1.2-2.4,0.2c0.1,1,0.1,2,0.2,3.1c0.8-0.1,1.6-0.2,2.4-0.2c-1.2-3.9-2.9-7.6-5-11
				c-0.8-1.4-2.9-0.3-2.2,1.1c1.3,2.6,2.9,5,4.8,7.2c0.9,1,2.3,0,2.1-1.1c-0.4-3-1.1-5.9-1.9-8.7c-0.7,0.4-1.4,0.8-2.1,1.1
				c1.5,1.6,3,3.1,4.5,4.7c0.8,0.9,2.5,0.1,2.1-1.1c-0.4-1.3-1.8-4.4-1.1-5c0.7-0.7,5.5,1.1,6.5,1.4c0.1-0.8,0.3-1.6,0.4-2.5
				c-2.9-0.2-5.8-0.3-8.6-0.5c-1.6-0.1-1.7,2.4-0.1,2.5c4.7,0.3,9.2-0.7,13.4-2.9c1.3-0.7,0.5-2.7-0.9-2.4
				c-3.9,0.9-7.8,1.6-11.8,2.3c-1.4,0.2-1.2,2.5,0.3,2.5c3.1,0,8.7,0.4,10.3-3c0.4-0.9,0-1.9-1-1.9c-4.5-0.3-8.4,2.1-12.9,2.2
				c0.1,0.8,0.2,1.7,0.3,2.5c3.9-0.4,7.8-0.9,11.8-1.3c1.4-0.2,1.2-2.6-0.3-2.5c-2.5,0.1-5,0.4-7.4,1c-1.8,0.4-4.6,0.7-6,1.9
				c-3.1,2.7,3.7,6.5,5.4,7.5c1.1,0.6,2.4-0.5,1.8-1.7c-1.7-3-3.9-5.4-6.7-7.4c-0.9-0.6-2.2,0.3-1.9,1.4c0.8,2.6,1.6,5.1,2.3,7.7
				c0.7-0.4,1.5-0.8,2.2-1.2c-1-1-1.9-2-2.6-3.3c-0.4-0.7-0.7-1.4-0.9-2.2c-1.5-0.1-1.4,0,0,0.4c2.6,1.5,6,2.3,8.9,3.3
				c1.4,0.5,2.4-1.7,1.1-2.4c-3-1.5-6-2.5-9.2-3.1c-1.2-0.2-2.4,1.2-1.3,2.2c1.7,1.6,9.8,6.5,10.1,1c0.2-4.7-9.9-4.8-12.9-4.9
				c-1,0-1.7,1.1-1.2,2c1,1.8,2.1,3.1,3.8,4.4c1.2,0.9,2.4-0.7,1.9-1.8C16.6,23,15.7,21,14,19.3c-0.9-1-2.6-0.1-2.3,1.2
				c0.5,2.3,1.1,4.4,1.9,6.6c0.8-0.4,1.6-0.8,2.4-1.3c-0.7-1.7-1.4-3.4-2-5c-0.7-1.6-3-0.3-2.4,1.3c0.1,0.3,0.2,0.6,0.4,0.9
				c0.6,1.6,3,0.3,2.4-1.3c-0.1-0.3-0.2-0.6-0.4-0.9c-0.8,0.4-1.6,0.8-2.4,1.3c0.7,1.7,1.4,3.3,2,5c0.7,1.6,3,0.3,2.4-1.3
				c-0.7-1.9-1.3-3.9-1.7-5.9c-0.8,0.4-1.5,0.8-2.3,1.2c1.5,1.5,2.3,3.3,3.2,5.2c0.6-0.6,1.3-1.2,1.9-1.8c-1.3-0.9-2.1-2-2.9-3.3
				c-0.4,0.7-0.8,1.3-1.2,2c2.6,0.1,5,0.3,7.5,1c0.5,0.1,1,0.3,1.5,0.4c0.9,0.8,0.9,0.9-0.1,0.6c-1.4,0.1-3.3-1.6-4.2-2.5
				c-0.4,0.7-0.9,1.4-1.3,2.2c3,0.6,5.8,1.5,8.6,2.8c0.4-0.8,0.7-1.6,1.1-2.4c-3-1.1-5.9-2.2-8.9-3.3c-1.1-0.4-2.4-1-3.2,0.1
				c-1.9,2.5,2.4,7.7,4,9.2c0.9,0.8,2.6,0.1,2.2-1.2c-0.7-2.6-1.5-5.2-2.3-7.7c-0.6,0.5-1.3,0.9-1.9,1.4c2.5,1.7,4.3,3.7,5.8,6.4
				c0.6-0.6,1.2-1.1,1.8-1.7c-1.4-0.9-4.8-2.5-5-4.3c-0.1,0.4-0.3,0.8-0.4,1.2c1-1.2,4.3-1.6,5.8-1.9c2.1-0.4,4.2-0.7,6.3-0.8
				c-0.1-0.8-0.2-1.7-0.3-2.5c-3.9,0.4-7.8,0.9-11.7,1.3c-1.4,0.2-1.2,2.5,0.3,2.5c4.4,0,8.4-2.5,12.9-2.2c-0.3-0.6-0.7-1.3-1-1.9
				c-1,2.2-6.3,1.8-8.1,1.8c0.1,0.8,0.2,1.7,0.3,2.5c3.9-0.7,7.9-1.5,11.8-2.3c-0.3-0.8-0.6-1.6-0.9-2.4c-3.8,2.1-7.8,2.9-12.1,2.6
				c0,0.8,0,1.7-0.1,2.5c2.9,0.2,5.8,0.3,8.6,0.5c1.5,0.1,1.7-2,0.4-2.5c-2.2-0.7-7-2.6-9.2-1.1c-2.3,1.6,0.1,5.8,0.6,7.7
				c0.7-0.4,1.4-0.8,2.1-1.1c-1.5-1.6-3-3.1-4.5-4.7c-0.8-0.9-2.5-0.1-2.1,1.1c0.8,2.9,1.5,5.8,1.9,8.7c0.7-0.4,1.4-0.7,2.1-1.1
				c-1.8-2.1-3.3-4.2-4.5-6.7c-0.7,0.4-1.5,0.8-2.2,1.1c2,3.3,3.7,6.8,4.9,10.4c0.4,1.2,2.5,1.2,2.4-0.2c-0.1-1-0.1-2-0.2-3.1
				c-0.8,0.1-1.6,0.2-2.4,0.2c0.6,2.3,1.2,4.6,1.8,6.9c0.3,1,1.6,1.3,2.2,0.4c1.4-2.3,2.5-4.7,3.3-7.3c0.4-1.3-1.5-2.1-2.2-1
				c-1.2,1.9-2.4,3.8-3.6,5.6c0.7,0.2,1.5,0.5,2.2,0.7c-0.3-3.1-0.3-6.1,0.1-9.1c-0.8,0.1-1.6,0.2-2.4,0.2c0.2,2.3,0.5,4.6,0.7,6.9
				c0.2,1.4,2.1,1,2.3-0.2c0.5-3.7,1.1-7.4,1.6-11.2c-0.8,0-1.5,0-2.3-0.1c-0.3,2.9-0.7,5.8-1.1,8.7c-0.1,1,1.2,1.4,1.9,0.8
				c3-2.7,4.1-6.7,7-9.5c-0.6-0.4-1.2-0.7-1.8-1.1c-0.7,3.4-2.3,6-5.1,8.1c0.5,0.4,1.1,0.9,1.6,1.3c1.7-3.4,4.7-5.9,6.5-9.3
				c0.6-1.2-1-2.3-1.8-1.1c-1.5,2.1-3.1,4.2-4.8,6.1c-0.4,0.4-0.7,0.8-1.1,1.2c-0.5,0.4-0.5,0.4-0.2-0.2c0.1-1.3,1.2-2.9,1.8-4
				c0.6-1.2-1-2.2-1.7-1.1c-1.4,2-2.8,4-4.2,6.1C19.4,32.9,20.8,33.6,21.4,32.9L21.4,32.9z"/>
		</g>
	</g>
	<g>
		<g>
			<path d="M15.6,23c0.5-0.1,0.7-0.4,1.1-0.6c0.7-0.5,1.2-0.3,2-0.2c1.4,0.2,3,0.3,4.3,0.8c-0.2-0.2-0.5-0.4-0.7-0.6
				c0-0.1-0.1-0.3-0.1-0.4c0,0.5,0.3,0.9,0.8,1.1c0,0,0,0,0.1,0c0.4,0.1,0.8,0,1.1-0.3c0,0,0,0,0.1-0.1c0.4-0.4,0.5-1,0.3-1.5
				c-0.4-0.8-1.1-0.9-1.8-1c-1.2-0.2-2.3-0.3-3.5-0.5c-0.9-0.1-1.9-0.4-2.7,0.1c-0.8,0.5-0.5,1.5-1.2,1.9
				C14.6,22.3,14.9,23.2,15.6,23L15.6,23z"/>
		</g>
	</g>
	<g>
		<g>
			<path d="M23.1,20.7c1.3-3.1,1.7-6.8,2.2-10.1C25.7,7.5,26,4,24.9,1.1c-0.4-1-1.9-0.5-2,0.5c-0.1,3.2,0.5,6.3,0.2,9.5
				c-0.3,3.2-1.2,6.3-1.3,9.5C21.8,21.3,22.8,21.4,23.1,20.7L23.1,20.7z"/>
		</g>
	</g>
</g>
</svg>
