<?xml version="1.0" standalone="no"?>
<!DOCTYPE svg PUBLIC "-//W3C//DTD SVG 20010904//EN"
 "http://www.w3.org/TR/2001/REC-SVG-20010904/DTD/svg10.dtd">
<svg version="1.0" xmlns="http://www.w3.org/2000/svg"
 width="512.000000pt" height="512.000000pt" viewBox="0 0 512.000000 512.000000"
 preserveAspectRatio="xMidYMid meet">
<metadata>
Created by potrace 1.15, written by Peter Selinger 2001-2017
</metadata>
<g transform="translate(0.000000,512.000000) scale(0.100000,-0.100000)"
fill="#000000" stroke="none">
<path d="M1617 4492 c-116 -116 -147 -153 -147 -174 0 -45 32 -58 137 -58 l93
0 2 -666 3 -666 28 -24 c39 -33 81 -31 118 5 l29 29 0 661 0 661 100 0 c87 0
103 3 120 20 38 38 27 57 -128 212 -124 124 -152 148 -177 148 -26 0 -54 -24
-178 -148z"/>
<path d="M1308 4101 l-33 -29 -3 -646 -3 -646 -90 0 c-82 0 -92 -2 -114 -25
-16 -16 -25 -35 -25 -57 0 -28 18 -50 148 -180 123 -123 153 -148 177 -148 24
0 54 25 177 148 130 130 148 152 148 180 0 22 -9 41 -25 57 -22 23 -32 25
-114 25 l-91 0 -2 646 -3 646 -33 29 c-41 37 -73 37 -114 0z"/>
<path d="M2315 3971 c-114 -28 -205 -130 -224 -251 -4 -27 -2 -302 5 -612 7
-310 13 -620 13 -690 l1 -126 -64 -46 c-133 -95 -222 -225 -268 -394 -32 -115
-32 -361 0 -487 83 -327 398 -695 710 -830 182 -79 374 -111 621 -102 244 8
406 61 548 176 121 99 271 339 307 491 43 179 71 475 86 911 10 270 9 316 -4
362 -39 134 -193 221 -332 189 l-42 -9 -6 36 c-3 20 -15 54 -27 76 -79 149
-260 203 -415 124 -24 -12 -40 -15 -42 -9 -13 37 -75 109 -116 135 -46 28 -56
30 -146 30 -91 0 -100 -2 -147 -32 l-51 -31 -6 111 c-3 62 -11 245 -16 407 -6
162 -13 311 -17 330 -10 60 -63 149 -111 186 -72 55 -171 76 -257 55z m165
-161 c70 -50 69 -42 95 -748 22 -633 23 -636 45 -654 28 -23 62 -23 89 0 16
14 26 46 46 167 16 93 32 159 43 175 10 14 39 35 64 48 59 30 110 22 154 -23
41 -40 54 -88 54 -197 0 -64 4 -91 15 -102 24 -23 52 -28 82 -14 23 11 30 23
39 71 14 68 34 101 77 127 96 59 216 11 247 -98 5 -20 10 -106 10 -191 0 -172
6 -191 63 -191 56 0 67 22 67 127 l0 94 35 15 c68 28 134 14 185 -40 32 -36
35 -87 21 -422 -13 -302 -24 -456 -47 -624 -22 -167 -41 -233 -95 -340 -124
-242 -267 -359 -499 -406 -129 -26 -419 -16 -555 20 -194 51 -337 135 -490
290 -233 235 -328 448 -329 731 -1 145 10 206 57 305 27 58 137 190 157 190 4
0 9 -104 12 -231 4 -228 4 -232 27 -250 30 -24 62 -24 92 0 l23 18 -21 1011
c-15 682 -19 1022 -12 1046 12 44 54 94 94 112 42 20 116 12 155 -16z"/>
</g>
</svg>
