<?xml version="1.0" encoding="utf-8"?>
<!-- Generator: Adobe Illustrator 16.0.0, SVG Export Plug-In . SVG Version: 6.00 Build 0)  -->
<!DOCTYPE svg PUBLIC "-//W3C//DTD SVG 1.1//EN" "http://www.w3.org/Graphics/SVG/1.1/DTD/svg11.dtd">
<svg version="1.1" id="Layer_1" xmlns="http://www.w3.org/2000/svg" xmlns:xlink="http://www.w3.org/1999/xlink" x="0px" y="0px"
	 width="512px" height="512px" viewBox="0 0 512 512" enable-background="new 0 0 512 512" xml:space="preserve">
<g transform="translate(0.000000,512.000000) scale(0.100000,-0.100000)">
	<path d="M4626.198,3157.195c-115.996,115.996-152.998,147.002-174.004,147.002c-45,0-57.998-32.002-57.998-137.002v-92.998
		l-665.996-2.002l-666.006-2.998l-23.994-27.998c-32.998-39.004-31.006-81.006,5-118.008l28.994-28.994H3733.2h660.996v-100
		c0-87.002,2.998-102.998,20-120c37.998-37.998,57.002-27.002,212.002,127.998c124.004,124.004,147.998,152.002,147.998,177.002
		C4774.196,3005.193,4750.202,3033.191,4626.198,3157.195z"/>
	<path d="M4235.202,3466.198l-29.004,32.998l-645.996,2.998l-646.006,2.998v90c0,82.002-1.992,92.002-25,114.004
		c-15.996,15.996-35,25-56.992,25c-28.008,0-50-17.998-180-147.998c-123.008-123.008-148.008-153.008-148.008-177.002
		c0-24.004,25-54.004,147.998-177.002c130-130,152.002-147.998,180-147.998c22.002,0,41.006,8.994,57.002,25
		c22.998,22.002,25,32.002,25,113.994v91.006l646.006,2.002l645.996,2.998l29.004,32.998
		C4272.194,3393.191,4272.194,3425.193,4235.202,3466.198z"/>
	<path d="M964.998,4241.003c-113.994-28.008-205-130-223.994-251.006c-4.004-27.002-2.002-302.002,5-612.002
		c6.992-310,12.998-620,12.998-690l0.996-125.996l-63.994-45.996c-133.008-95-222.002-225-268.008-394.004
		c-31.992-115-31.992-360.996,0-487.002c83.008-326.992,398.008-695,710-830c182.002-78.994,374.004-110.996,621.006-101.992
		c243.994,7.998,405.996,60.996,547.998,175.996c120.996,99.004,270.996,339.004,307.002,490.996
		c42.998,179.004,70.996,475,85.996,911.006c10,270,9.004,315.996-3.994,361.992c-39.004,134.004-193.008,221.006-332.002,189.004
		l-42.002-9.004l-5.996,36.006c-3.008,20-15,53.994-27.002,75.996c-79.004,149.004-260,202.998-415,124.004
		c-24.004-12.002-40-15-42.002-9.004c-12.998,37.002-75,109.004-115.996,135c-46.006,27.998-56.006,30-146.006,30
		c-90.996,0-100-2.002-147.002-32.002L1372,3151.999l-5.996,110.996c-3.008,62.002-11.006,245-16.006,407.002
		c-5.996,162.002-12.998,311.006-17.002,330c-10,60-62.998,149.004-110.996,186.006
		C1149.998,4241.003,1051.003,4261.999,964.998,4241.003z M1129.998,4079.997c70-50,69.004-42.002,95-747.998
		c22.002-632.998,22.998-635.996,45-654.004c27.998-22.998,62.002-22.998,89.004,0c15.996,14.004,25.996,46.006,45.996,167.002
		c16.006,92.998,32.002,159.004,42.998,175c10,14.004,39.004,35,64.004,47.998c59.004,30,110,22.002,154.004-22.998
		c40.996-40,53.994-87.998,53.994-197.002c0-63.994,4.004-90.996,15-101.992c24.004-23.008,52.002-28.008,82.002-14.004
		c22.998,10.996,30,22.998,39.004,70.996c13.994,68.008,33.994,101.006,76.992,127.002c96.006,59.004,216.006,11.006,247.002-97.998
		c5-20,10-105.996,10-190.996c0-172.002,6.006-191.006,62.998-191.006c56.006,0,67.002,22.002,67.002,127.002v94.004l35,15
		c67.998,27.998,134.004,13.994,185-40c32.002-36.006,35-87.002,21.006-422.002c-13.008-302.002-24.004-455.996-47.002-624.004
		c-22.002-166.992-41.006-232.998-95-340c-124.004-241.992-267.002-358.994-499.004-405.996c-128.994-25.996-418.994-15.996-555,20
		c-193.994,50.996-337.002,135-490,290C642,1399.001,547,1611.999,546.003,1894.997c-1.006,145,10,206.006,56.992,305
		c27.002,58.008,137.002,190,157.002,190c4.004,0,9.004-103.994,12.002-230.996c4.004-227.998,4.004-232.002,27.002-250
		c30-24.004,62.002-24.004,92.002,0l22.998,17.998l-21.006,1010.996c-15,682.002-18.994,1022.002-11.992,1046.006
		c11.992,43.994,53.994,93.994,93.994,112.002C1017,4116.003,1091.003,4107.995,1129.998,4079.997z"/>
</g>
</svg>
